<mxfile host="app.diagrams.net" agent="Mozilla/5.0 (Windows NT 10.0; Win64; x64) AppleWebKit/537.36 (KHTML, like Gecko) Chrome/131.0.0.0 Safari/537.36" version="26.0.6" pages="3">
  <diagram name="DFD контекстная" id="Kj6uKSFET-x_spvsK_z2">
    <mxGraphModel dx="1843" dy="1982" grid="1" gridSize="10" guides="1" tooltips="1" connect="1" arrows="1" fold="1" page="1" pageScale="1" pageWidth="827" pageHeight="1169" math="0" shadow="0">
      <root>
        <mxCell id="0" />
        <mxCell id="1" parent="0" />
        <mxCell id="9D0SUuwFzpJp93_VvzQI-5" value="0" style="swimlane;childLayout=stackLayout;horizontal=1;startSize=30;horizontalStack=0;rounded=1;fontSize=14;fontStyle=0;strokeWidth=1;resizeParent=0;resizeLast=1;shadow=0;dashed=0;align=center;fillColor=#FFFFFF;" vertex="1" parent="1">
          <mxGeometry x="332.5" y="-1118" width="160" height="230" as="geometry" />
        </mxCell>
        <mxCell id="9D0SUuwFzpJp93_VvzQI-6" value="Приложение &quot;Stets Home&quot;" style="align=center;strokeColor=none;fillColor=none;spacingLeft=4;fontSize=12;verticalAlign=middle;resizable=0;rotatable=0;part=1;" vertex="1" parent="9D0SUuwFzpJp93_VvzQI-5">
          <mxGeometry y="30" width="160" height="200" as="geometry" />
        </mxCell>
        <mxCell id="9D0SUuwFzpJp93_VvzQI-21" value="Пользователь" style="html=1;dashed=0;whiteSpace=wrap;" vertex="1" parent="1">
          <mxGeometry x="9" y="-1118" width="160" height="230" as="geometry" />
        </mxCell>
        <mxCell id="9D0SUuwFzpJp93_VvzQI-22" value="Устройство" style="html=1;dashed=0;whiteSpace=wrap;" vertex="1" parent="1">
          <mxGeometry x="659" y="-1080" width="160" height="140" as="geometry" />
        </mxCell>
        <mxCell id="9D0SUuwFzpJp93_VvzQI-23" value="" style="endArrow=classic;html=1;rounded=0;exitX=1.003;exitY=0.054;exitDx=0;exitDy=0;exitPerimeter=0;entryX=0.001;entryY=0.054;entryDx=0;entryDy=0;entryPerimeter=0;" edge="1" parent="1" source="9D0SUuwFzpJp93_VvzQI-21" target="9D0SUuwFzpJp93_VvzQI-5">
          <mxGeometry width="50" height="50" relative="1" as="geometry">
            <mxPoint x="329" y="-1028" as="sourcePoint" />
            <mxPoint x="379" y="-1078" as="targetPoint" />
          </mxGeometry>
        </mxCell>
        <mxCell id="9D0SUuwFzpJp93_VvzQI-24" value="Данные пользователя" style="text;html=1;align=center;verticalAlign=middle;resizable=0;points=[];autosize=1;strokeColor=none;fillColor=none;" vertex="1" parent="1">
          <mxGeometry x="177.5" y="-1130" width="150" height="30" as="geometry" />
        </mxCell>
        <mxCell id="9D0SUuwFzpJp93_VvzQI-25" value="" style="endArrow=classic;html=1;rounded=0;entryX=0.003;entryY=0.105;entryDx=0;entryDy=0;entryPerimeter=0;" edge="1" parent="1">
          <mxGeometry width="50" height="50" relative="1" as="geometry">
            <mxPoint x="169" y="-1073" as="sourcePoint" />
            <mxPoint x="332.9799999999998" y="-1073.45" as="targetPoint" />
          </mxGeometry>
        </mxCell>
        <mxCell id="9D0SUuwFzpJp93_VvzQI-27" value="QR-код и код с коробки" style="text;html=1;align=center;verticalAlign=middle;resizable=0;points=[];autosize=1;strokeColor=none;fillColor=none;" vertex="1" parent="1">
          <mxGeometry x="177.5" y="-1100" width="150" height="30" as="geometry" />
        </mxCell>
        <mxCell id="9D0SUuwFzpJp93_VvzQI-28" value="" style="endArrow=classic;html=1;rounded=0;exitX=1;exitY=0.5;exitDx=0;exitDy=0;" edge="1" parent="1">
          <mxGeometry width="50" height="50" relative="1" as="geometry">
            <mxPoint x="169" y="-1045" as="sourcePoint" />
            <mxPoint x="331" y="-1045" as="targetPoint" />
          </mxGeometry>
        </mxCell>
        <mxCell id="9D0SUuwFzpJp93_VvzQI-29" value="Команда устройству" style="text;html=1;align=center;verticalAlign=middle;resizable=0;points=[];autosize=1;strokeColor=none;fillColor=none;" vertex="1" parent="1">
          <mxGeometry x="182.5" y="-1071" width="140" height="30" as="geometry" />
        </mxCell>
        <mxCell id="9D0SUuwFzpJp93_VvzQI-30" value="" style="endArrow=classic;html=1;rounded=0;exitX=1;exitY=0.75;exitDx=0;exitDy=0;entryX=-0.001;entryY=0.662;entryDx=0;entryDy=0;entryPerimeter=0;" edge="1" parent="1">
          <mxGeometry width="50" height="50" relative="1" as="geometry">
            <mxPoint x="169" y="-1015" as="sourcePoint" />
            <mxPoint x="332.3399999999999" y="-1015.4199999999998" as="targetPoint" />
          </mxGeometry>
        </mxCell>
        <mxCell id="9D0SUuwFzpJp93_VvzQI-31" value="Данные комнаты" style="text;html=1;align=center;verticalAlign=middle;resizable=0;points=[];autosize=1;strokeColor=none;fillColor=none;" vertex="1" parent="1">
          <mxGeometry x="187.5" y="-1042" width="120" height="30" as="geometry" />
        </mxCell>
        <mxCell id="9D0SUuwFzpJp93_VvzQI-32" value="" style="endArrow=classic;html=1;rounded=0;entryX=0.986;entryY=0.032;entryDx=0;entryDy=0;entryPerimeter=0;" edge="1" parent="1" target="WqTq35Kzlyl1M2jswhhq-2">
          <mxGeometry width="50" height="50" relative="1" as="geometry">
            <mxPoint x="169" y="-986" as="sourcePoint" />
            <mxPoint x="329" y="-1005" as="targetPoint" />
          </mxGeometry>
        </mxCell>
        <mxCell id="9D0SUuwFzpJp93_VvzQI-33" value="Сценарий автоматизации" style="text;html=1;align=center;verticalAlign=middle;resizable=0;points=[];autosize=1;strokeColor=none;fillColor=none;" vertex="1" parent="1">
          <mxGeometry x="167.5" y="-1012" width="170" height="30" as="geometry" />
        </mxCell>
        <mxCell id="9D0SUuwFzpJp93_VvzQI-37" value="" style="endArrow=classic;html=1;rounded=0;entryX=-0.004;entryY=0.549;entryDx=0;entryDy=0;entryPerimeter=0;exitX=1.004;exitY=0.426;exitDx=0;exitDy=0;exitPerimeter=0;" edge="1" parent="1" source="9D0SUuwFzpJp93_VvzQI-6" target="9D0SUuwFzpJp93_VvzQI-22">
          <mxGeometry width="50" height="50" relative="1" as="geometry">
            <mxPoint x="494" y="-1048" as="sourcePoint" />
            <mxPoint x="649" y="-938" as="targetPoint" />
          </mxGeometry>
        </mxCell>
        <mxCell id="9D0SUuwFzpJp93_VvzQI-38" value="Команда устройству" style="text;html=1;align=center;verticalAlign=middle;resizable=0;points=[];autosize=1;strokeColor=none;fillColor=none;" vertex="1" parent="1">
          <mxGeometry x="504" y="-1028" width="140" height="30" as="geometry" />
        </mxCell>
        <mxCell id="WqTq35Kzlyl1M2jswhhq-1" value="" style="endArrow=classic;html=1;rounded=0;entryX=1;entryY=0.663;entryDx=0;entryDy=0;entryPerimeter=0;exitX=-0.006;exitY=0.571;exitDx=0;exitDy=0;exitPerimeter=0;" edge="1" parent="1">
          <mxGeometry width="50" height="50" relative="1" as="geometry">
            <mxPoint x="333.75" y="-953" as="sourcePoint" />
            <mxPoint x="170.75" y="-953" as="targetPoint" />
          </mxGeometry>
        </mxCell>
        <mxCell id="WqTq35Kzlyl1M2jswhhq-2" value="Ссылка для&lt;br&gt;&amp;nbsp;восстановления пароля" style="text;html=1;align=center;verticalAlign=middle;resizable=0;points=[];autosize=1;strokeColor=none;fillColor=none;" vertex="1" parent="1">
          <mxGeometry x="174.25" y="-988" width="160" height="40" as="geometry" />
        </mxCell>
        <mxCell id="3_Wh0w_Wn-9Bsher1nXT-1" value="" style="endArrow=classic;html=1;rounded=0;entryX=1;entryY=0.663;entryDx=0;entryDy=0;entryPerimeter=0;exitX=-0.006;exitY=0.571;exitDx=0;exitDy=0;exitPerimeter=0;" edge="1" parent="1">
          <mxGeometry width="50" height="50" relative="1" as="geometry">
            <mxPoint x="333.28999999999996" y="-891.1899999999998" as="sourcePoint" />
            <mxPoint x="170.75" y="-891.1799999999998" as="targetPoint" />
          </mxGeometry>
        </mxCell>
        <mxCell id="3_Wh0w_Wn-9Bsher1nXT-2" value="Сообщение о попытке&lt;br&gt;&amp;nbsp;повторного добавления&lt;br&gt;&amp;nbsp;устройства" style="text;html=1;align=center;verticalAlign=middle;resizable=0;points=[];autosize=1;strokeColor=none;fillColor=none;" vertex="1" parent="1">
          <mxGeometry x="174.25" y="-944" width="160" height="60" as="geometry" />
        </mxCell>
      </root>
    </mxGraphModel>
  </diagram>
  <diagram id="CfpfkZUZ16RMYFpE4MeS" name="DFD логические">
    <mxGraphModel dx="606" dy="1801" grid="1" gridSize="10" guides="1" tooltips="1" connect="1" arrows="1" fold="1" page="1" pageScale="1" pageWidth="827" pageHeight="1169" math="0" shadow="0">
      <root>
        <mxCell id="0" />
        <mxCell id="1" parent="0" />
        <mxCell id="2SUcwZdlPGgnNjEAEPAu-13" value="1" style="swimlane;childLayout=stackLayout;horizontal=1;startSize=30;horizontalStack=0;rounded=1;fontSize=14;fontStyle=0;strokeWidth=1;resizeParent=0;resizeLast=1;shadow=0;dashed=0;align=center;fillColor=#FFFFFF;" parent="1" vertex="1">
          <mxGeometry x="1993.5" y="-862" width="160" height="140" as="geometry" />
        </mxCell>
        <mxCell id="2SUcwZdlPGgnNjEAEPAu-14" value="Управлять учётной&#xa;записью" style="align=center;strokeColor=none;fillColor=none;spacingLeft=4;fontSize=12;verticalAlign=middle;resizable=0;rotatable=0;part=1;" parent="2SUcwZdlPGgnNjEAEPAu-13" vertex="1">
          <mxGeometry y="30" width="160" height="110" as="geometry" />
        </mxCell>
        <mxCell id="2SUcwZdlPGgnNjEAEPAu-15" value="Пользователь" style="html=1;dashed=0;whiteSpace=wrap;" parent="1" vertex="1">
          <mxGeometry x="1670" y="-862" width="160" height="140" as="geometry" />
        </mxCell>
        <mxCell id="2SUcwZdlPGgnNjEAEPAu-16" value="" style="endArrow=classic;html=1;rounded=0;exitX=0.997;exitY=0.103;exitDx=0;exitDy=0;exitPerimeter=0;entryX=0.003;entryY=0.109;entryDx=0;entryDy=0;entryPerimeter=0;" parent="1" edge="1">
          <mxGeometry width="50" height="50" relative="1" as="geometry">
            <mxPoint x="1829.52" y="-823.5799999999999" as="sourcePoint" />
            <mxPoint x="1993.98" y="-822.74" as="targetPoint" />
          </mxGeometry>
        </mxCell>
        <mxCell id="2SUcwZdlPGgnNjEAEPAu-17" value="Данные пользователя" style="text;html=1;align=center;verticalAlign=middle;resizable=0;points=[];autosize=1;strokeColor=none;fillColor=none;" parent="1" vertex="1">
          <mxGeometry x="1838.5" y="-848" width="150" height="30" as="geometry" />
        </mxCell>
        <mxCell id="2SUcwZdlPGgnNjEAEPAu-18" value="" style="endArrow=classic;html=1;rounded=0;entryX=1;entryY=0.663;entryDx=0;entryDy=0;entryPerimeter=0;exitX=-0.006;exitY=0.571;exitDx=0;exitDy=0;exitPerimeter=0;" parent="1" source="2SUcwZdlPGgnNjEAEPAu-14" target="2SUcwZdlPGgnNjEAEPAu-15" edge="1">
          <mxGeometry width="50" height="50" relative="1" as="geometry">
            <mxPoint x="1886.9499999999998" y="-904" as="sourcePoint" />
            <mxPoint x="1936.9499999999998" y="-954" as="targetPoint" />
          </mxGeometry>
        </mxCell>
        <mxCell id="2SUcwZdlPGgnNjEAEPAu-19" value="Ссылка для&lt;br&gt;&amp;nbsp;восстановления пароля" style="text;html=1;align=center;verticalAlign=middle;resizable=0;points=[];autosize=1;strokeColor=none;fillColor=none;" parent="1" vertex="1">
          <mxGeometry x="1833.5" y="-804" width="160" height="40" as="geometry" />
        </mxCell>
        <mxCell id="2SUcwZdlPGgnNjEAEPAu-20" value="D1&amp;nbsp; &amp;nbsp; &amp;nbsp;Пользователи" style="html=1;dashed=0;whiteSpace=wrap;shape=mxgraph.dfd.dataStoreID;align=left;spacingLeft=3;points=[[0,0],[0.5,0],[1,0],[0,0.5],[1,0.5],[0,1],[0.5,1],[1,1]];" parent="1" vertex="1">
          <mxGeometry x="2313.95" y="-807" width="135" height="30" as="geometry" />
        </mxCell>
        <mxCell id="2SUcwZdlPGgnNjEAEPAu-21" value="Данные пользователя" style="text;html=1;align=center;verticalAlign=middle;resizable=0;points=[];autosize=1;strokeColor=none;fillColor=none;" parent="1" vertex="1">
          <mxGeometry x="2153.5" y="-824" width="150" height="30" as="geometry" />
        </mxCell>
        <mxCell id="2SUcwZdlPGgnNjEAEPAu-22" value="" style="endArrow=classic;html=1;rounded=0;entryX=-0.017;entryY=0.252;entryDx=0;entryDy=0;entryPerimeter=0;" parent="1" target="2SUcwZdlPGgnNjEAEPAu-20" edge="1">
          <mxGeometry width="50" height="50" relative="1" as="geometry">
            <mxPoint x="2156" y="-799" as="sourcePoint" />
            <mxPoint x="2096" y="-844" as="targetPoint" />
          </mxGeometry>
        </mxCell>
        <mxCell id="2SUcwZdlPGgnNjEAEPAu-23" value="" style="endArrow=classic;html=1;rounded=0;entryX=1.022;entryY=0.433;entryDx=0;entryDy=0;entryPerimeter=0;" parent="1" target="2SUcwZdlPGgnNjEAEPAu-14" edge="1">
          <mxGeometry width="50" height="50" relative="1" as="geometry">
            <mxPoint x="2306" y="-784" as="sourcePoint" />
            <mxPoint x="2096" y="-734" as="targetPoint" />
          </mxGeometry>
        </mxCell>
        <mxCell id="2SUcwZdlPGgnNjEAEPAu-24" value="Данные пользователя" style="text;html=1;align=center;verticalAlign=middle;resizable=0;points=[];autosize=1;strokeColor=none;fillColor=none;" parent="1" vertex="1">
          <mxGeometry x="2163.95" y="-784" width="150" height="30" as="geometry" />
        </mxCell>
        <mxCell id="2SUcwZdlPGgnNjEAEPAu-25" value="2" style="swimlane;childLayout=stackLayout;horizontal=1;startSize=30;horizontalStack=0;rounded=1;fontSize=14;fontStyle=0;strokeWidth=1;resizeParent=0;resizeLast=1;shadow=0;dashed=0;align=center;fillColor=#FFFFFF;" parent="1" vertex="1">
          <mxGeometry x="1993.5" y="-695" width="160" height="140" as="geometry" />
        </mxCell>
        <mxCell id="2SUcwZdlPGgnNjEAEPAu-26" value="Управлять домом" style="align=center;strokeColor=none;fillColor=none;spacingLeft=4;fontSize=12;verticalAlign=middle;resizable=0;rotatable=0;part=1;" parent="2SUcwZdlPGgnNjEAEPAu-25" vertex="1">
          <mxGeometry y="30" width="160" height="110" as="geometry" />
        </mxCell>
        <mxCell id="2SUcwZdlPGgnNjEAEPAu-27" value="" style="endArrow=classic;html=1;rounded=0;exitX=0.92;exitY=0.995;exitDx=0;exitDy=0;entryX=0;entryY=0;entryDx=0;entryDy=0;exitPerimeter=0;" parent="1" source="2SUcwZdlPGgnNjEAEPAu-15" target="2SUcwZdlPGgnNjEAEPAu-26" edge="1">
          <mxGeometry width="50" height="50" relative="1" as="geometry">
            <mxPoint x="1800" y="-722" as="sourcePoint" />
            <mxPoint x="2003.98" y="-655.74" as="targetPoint" />
            <Array as="points">
              <mxPoint x="1817" y="-665" />
            </Array>
          </mxGeometry>
        </mxCell>
        <mxCell id="2SUcwZdlPGgnNjEAEPAu-28" value="Данные другого&lt;br&gt;&amp;nbsp;пользователя" style="text;html=1;align=center;verticalAlign=middle;resizable=0;points=[];autosize=1;strokeColor=none;fillColor=none;" parent="1" vertex="1">
          <mxGeometry x="1843.5" y="-704" width="110" height="40" as="geometry" />
        </mxCell>
        <mxCell id="2SUcwZdlPGgnNjEAEPAu-31" value="" style="endArrow=classic;html=1;rounded=0;entryX=0.2;entryY=0.975;entryDx=0;entryDy=0;entryPerimeter=0;" parent="1" target="2SUcwZdlPGgnNjEAEPAu-20" edge="1">
          <mxGeometry width="50" height="50" relative="1" as="geometry">
            <mxPoint x="2156" y="-632" as="sourcePoint" />
            <mxPoint x="2311.6549999999997" y="-632.44" as="targetPoint" />
            <Array as="points">
              <mxPoint x="2341" y="-632" />
            </Array>
          </mxGeometry>
        </mxCell>
        <mxCell id="2SUcwZdlPGgnNjEAEPAu-32" value="" style="endArrow=classic;html=1;rounded=0;entryX=1.022;entryY=0.433;entryDx=0;entryDy=0;entryPerimeter=0;exitX=0.339;exitY=1.13;exitDx=0;exitDy=0;exitPerimeter=0;" parent="1" source="2SUcwZdlPGgnNjEAEPAu-20" target="2SUcwZdlPGgnNjEAEPAu-26" edge="1">
          <mxGeometry width="50" height="50" relative="1" as="geometry">
            <mxPoint x="2306" y="-617" as="sourcePoint" />
            <mxPoint x="2096" y="-567" as="targetPoint" />
            <Array as="points">
              <mxPoint x="2360" y="-617" />
            </Array>
          </mxGeometry>
        </mxCell>
        <mxCell id="2SUcwZdlPGgnNjEAEPAu-34" value="" style="endArrow=classic;html=1;rounded=0;entryX=0.809;entryY=0;entryDx=0;entryDy=0;entryPerimeter=0;" parent="1" target="2SUcwZdlPGgnNjEAEPAu-40" edge="1">
          <mxGeometry width="50" height="50" relative="1" as="geometry">
            <mxPoint x="1799" y="-720" as="sourcePoint" />
            <mxPoint x="1995.25" y="-500.93000000000006" as="targetPoint" />
            <Array as="points" />
          </mxGeometry>
        </mxCell>
        <mxCell id="2SUcwZdlPGgnNjEAEPAu-35" value="QR-код и&lt;br&gt;&amp;nbsp;код с коробки" style="text;html=1;align=center;verticalAlign=middle;resizable=0;points=[];autosize=1;strokeColor=none;fillColor=none;" parent="1" vertex="1">
          <mxGeometry x="1800" y="-637" width="100" height="40" as="geometry" />
        </mxCell>
        <mxCell id="2SUcwZdlPGgnNjEAEPAu-36" value="" style="endArrow=classic;html=1;rounded=0;entryX=0.106;entryY=0.999;entryDx=0;entryDy=0;exitX=0.106;exitY=-0.001;exitDx=0;exitDy=0;exitPerimeter=0;entryPerimeter=0;" parent="1" source="2SUcwZdlPGgnNjEAEPAu-40" target="2SUcwZdlPGgnNjEAEPAu-15" edge="1">
          <mxGeometry width="50" height="50" relative="1" as="geometry">
            <mxPoint x="1992.54" y="-396.9999999999998" as="sourcePoint" />
            <mxPoint x="1830" y="-396.9899999999998" as="targetPoint" />
            <Array as="points" />
          </mxGeometry>
        </mxCell>
        <mxCell id="2SUcwZdlPGgnNjEAEPAu-37" value="Сообщение о попытке&lt;br&gt;&amp;nbsp;повторного добавления&lt;br&gt;&amp;nbsp;устройства" style="text;html=1;align=center;verticalAlign=middle;resizable=0;points=[];autosize=1;strokeColor=none;fillColor=none;" parent="1" vertex="1">
          <mxGeometry x="1530" y="-647" width="160" height="60" as="geometry" />
        </mxCell>
        <mxCell id="2SUcwZdlPGgnNjEAEPAu-38" value="QR-код и&lt;br&gt;&amp;nbsp;код с коробки" style="text;html=1;align=center;verticalAlign=middle;resizable=0;points=[];autosize=1;strokeColor=none;fillColor=none;" parent="1" vertex="1">
          <mxGeometry x="1683.97" y="-361" width="100" height="40" as="geometry" />
        </mxCell>
        <mxCell id="2SUcwZdlPGgnNjEAEPAu-40" value="3" style="swimlane;childLayout=stackLayout;horizontal=1;startSize=30;horizontalStack=0;rounded=1;fontSize=14;fontStyle=0;strokeWidth=1;resizeParent=0;resizeLast=1;shadow=0;dashed=0;align=center;fillColor=#FFFFFF;" parent="1" vertex="1">
          <mxGeometry x="1670" y="-550" width="160" height="157" as="geometry" />
        </mxCell>
        <mxCell id="2SUcwZdlPGgnNjEAEPAu-41" value="Управлять устройством" style="align=center;strokeColor=none;fillColor=none;spacingLeft=4;fontSize=12;verticalAlign=middle;resizable=0;rotatable=0;part=1;" parent="2SUcwZdlPGgnNjEAEPAu-40" vertex="1">
          <mxGeometry y="30" width="160" height="127" as="geometry" />
        </mxCell>
        <mxCell id="2SUcwZdlPGgnNjEAEPAu-42" value="" style="endArrow=classic;html=1;rounded=0;exitX=0.682;exitY=1.013;exitDx=0;exitDy=0;entryX=0.686;entryY=0.005;entryDx=0;entryDy=0;exitPerimeter=0;entryPerimeter=0;" parent="1" source="2SUcwZdlPGgnNjEAEPAu-15" target="2SUcwZdlPGgnNjEAEPAu-40" edge="1">
          <mxGeometry width="50" height="50" relative="1" as="geometry">
            <mxPoint x="1830.79" y="-469.5799999999999" as="sourcePoint" />
            <mxPoint x="1995.25" y="-468.74" as="targetPoint" />
            <Array as="points" />
          </mxGeometry>
        </mxCell>
        <mxCell id="2SUcwZdlPGgnNjEAEPAu-43" value="Команда&lt;br&gt;&amp;nbsp;устройству" style="text;html=1;align=center;verticalAlign=middle;resizable=0;points=[];autosize=1;strokeColor=none;fillColor=none;" parent="1" vertex="1">
          <mxGeometry x="1690" y="-637" width="90" height="40" as="geometry" />
        </mxCell>
        <mxCell id="2SUcwZdlPGgnNjEAEPAu-44" value="D2&amp;nbsp; &amp;nbsp; &amp;nbsp;Устройства" style="html=1;dashed=0;whiteSpace=wrap;shape=mxgraph.dfd.dataStoreID;align=left;spacingLeft=3;points=[[0,0],[0.5,0],[1,0],[0,0.5],[1,0.5],[0,1],[0.5,1],[1,1]];" parent="1" vertex="1">
          <mxGeometry x="1683.97" y="-287" width="132.05" height="55" as="geometry" />
        </mxCell>
        <mxCell id="2SUcwZdlPGgnNjEAEPAu-46" value="" style="endArrow=classic;html=1;rounded=0;exitX=0.137;exitY=1.003;exitDx=0;exitDy=0;exitPerimeter=0;entryX=0.063;entryY=-0.022;entryDx=0;entryDy=0;entryPerimeter=0;" parent="1" source="2SUcwZdlPGgnNjEAEPAu-41" target="2SUcwZdlPGgnNjEAEPAu-44" edge="1">
          <mxGeometry width="50" height="50" relative="1" as="geometry">
            <mxPoint x="1642.2799999999995" y="-395.0609999999999" as="sourcePoint" />
            <mxPoint x="1490.9372" y="-395.01" as="targetPoint" />
          </mxGeometry>
        </mxCell>
        <mxCell id="2SUcwZdlPGgnNjEAEPAu-48" value="Данные &lt;br&gt;устройства" style="text;html=1;align=center;verticalAlign=middle;resizable=0;points=[];autosize=1;strokeColor=none;fillColor=none;" parent="1" vertex="1">
          <mxGeometry x="1609.9999999999998" y="-362" width="90" height="40" as="geometry" />
        </mxCell>
        <mxCell id="2SUcwZdlPGgnNjEAEPAu-49" value="Устройство" style="html=1;dashed=0;whiteSpace=wrap;" parent="1" vertex="1">
          <mxGeometry x="1359.9999999999998" y="-502" width="160" height="70" as="geometry" />
        </mxCell>
        <mxCell id="2SUcwZdlPGgnNjEAEPAu-50" value="" style="endArrow=classic;html=1;rounded=0;entryX=1;entryY=0.5;entryDx=0;entryDy=0;" parent="1" target="2SUcwZdlPGgnNjEAEPAu-49" edge="1">
          <mxGeometry width="50" height="50" relative="1" as="geometry">
            <mxPoint x="1670" y="-467" as="sourcePoint" />
            <mxPoint x="1964.8099999999995" y="-509.56999999999994" as="targetPoint" />
          </mxGeometry>
        </mxCell>
        <mxCell id="2SUcwZdlPGgnNjEAEPAu-51" value="Команда устройству" style="text;html=1;align=center;verticalAlign=middle;resizable=0;points=[];autosize=1;strokeColor=none;fillColor=none;" parent="1" vertex="1">
          <mxGeometry x="1525" y="-492" width="140" height="30" as="geometry" />
        </mxCell>
        <mxCell id="2SUcwZdlPGgnNjEAEPAu-55" value="4" style="swimlane;childLayout=stackLayout;horizontal=1;startSize=30;horizontalStack=0;rounded=1;fontSize=14;fontStyle=0;strokeWidth=1;resizeParent=0;resizeLast=1;shadow=0;dashed=0;align=center;fillColor=#FFFFFF;" parent="1" vertex="1">
          <mxGeometry x="1360" y="-863" width="160" height="153" as="geometry" />
        </mxCell>
        <mxCell id="2SUcwZdlPGgnNjEAEPAu-56" value="Управлять комнатой" style="align=center;strokeColor=none;fillColor=none;spacingLeft=4;fontSize=12;verticalAlign=middle;resizable=0;rotatable=0;part=1;" parent="2SUcwZdlPGgnNjEAEPAu-55" vertex="1">
          <mxGeometry y="30" width="160" height="123" as="geometry" />
        </mxCell>
        <mxCell id="2SUcwZdlPGgnNjEAEPAu-57" value="" style="endArrow=classic;html=1;rounded=0;exitX=-0.008;exitY=0.643;exitDx=0;exitDy=0;exitPerimeter=0;entryX=1;entryY=0.5;entryDx=0;entryDy=0;" parent="1" source="2SUcwZdlPGgnNjEAEPAu-15" target="2SUcwZdlPGgnNjEAEPAu-56" edge="1">
          <mxGeometry width="50" height="50" relative="1" as="geometry">
            <mxPoint x="1207.77" y="-991.1099999999999" as="sourcePoint" />
            <mxPoint x="1372.23" y="-990.27" as="targetPoint" />
          </mxGeometry>
        </mxCell>
        <mxCell id="2SUcwZdlPGgnNjEAEPAu-58" value="Данные комнаты" style="text;html=1;align=center;verticalAlign=middle;resizable=0;points=[];autosize=1;strokeColor=none;fillColor=none;" parent="1" vertex="1">
          <mxGeometry x="1535" y="-802" width="120" height="30" as="geometry" />
        </mxCell>
        <mxCell id="2SUcwZdlPGgnNjEAEPAu-59" value="D3&amp;nbsp; &amp;nbsp; &amp;nbsp;Комнаты" style="html=1;dashed=0;whiteSpace=wrap;shape=mxgraph.dfd.dataStoreID;align=left;spacingLeft=3;points=[[0,0],[0.5,0],[1,0],[0,0.5],[1,0.5],[0,1],[0.5,1],[1,1]];" parent="1" vertex="1">
          <mxGeometry x="1087.95" y="-801" width="135" height="30" as="geometry" />
        </mxCell>
        <mxCell id="2SUcwZdlPGgnNjEAEPAu-60" value="Данные комнаты" style="text;html=1;align=center;verticalAlign=middle;resizable=0;points=[];autosize=1;strokeColor=none;fillColor=none;" parent="1" vertex="1">
          <mxGeometry x="1230" y="-814" width="120" height="30" as="geometry" />
        </mxCell>
        <mxCell id="2SUcwZdlPGgnNjEAEPAu-61" value="" style="endArrow=classic;html=1;rounded=0;exitX=-0.01;exitY=0.351;exitDx=0;exitDy=0;exitPerimeter=0;" parent="1" source="2SUcwZdlPGgnNjEAEPAu-56" edge="1">
          <mxGeometry width="50" height="50" relative="1" as="geometry">
            <mxPoint x="930" y="-793" as="sourcePoint" />
            <mxPoint x="1220" y="-790" as="targetPoint" />
          </mxGeometry>
        </mxCell>
        <mxCell id="2SUcwZdlPGgnNjEAEPAu-62" value="" style="endArrow=classic;html=1;rounded=0;entryX=0.002;entryY=0.43;entryDx=0;entryDy=0;entryPerimeter=0;" parent="1" target="2SUcwZdlPGgnNjEAEPAu-56" edge="1">
          <mxGeometry width="50" height="50" relative="1" as="geometry">
            <mxPoint x="1220" y="-780" as="sourcePoint" />
            <mxPoint x="931.02" y="-778.3699999999999" as="targetPoint" />
          </mxGeometry>
        </mxCell>
        <mxCell id="2SUcwZdlPGgnNjEAEPAu-63" value="Данные комнаты" style="text;html=1;align=center;verticalAlign=middle;resizable=0;points=[];autosize=1;strokeColor=none;fillColor=none;" parent="1" vertex="1">
          <mxGeometry x="1230" y="-784" width="120" height="30" as="geometry" />
        </mxCell>
        <mxCell id="2SUcwZdlPGgnNjEAEPAu-65" value="Данные &lt;br&gt;устройства" style="text;html=1;align=center;verticalAlign=middle;resizable=0;points=[];autosize=1;strokeColor=none;fillColor=none;" parent="1" vertex="1">
          <mxGeometry x="1290" y="-637" width="90" height="40" as="geometry" />
        </mxCell>
        <mxCell id="2SUcwZdlPGgnNjEAEPAu-66" value="" style="endArrow=classic;html=1;rounded=0;entryX=0.003;entryY=0.243;entryDx=0;entryDy=0;entryPerimeter=0;exitX=-0.011;exitY=0.856;exitDx=0;exitDy=0;exitPerimeter=0;" parent="1" source="2SUcwZdlPGgnNjEAEPAu-56" target="2SUcwZdlPGgnNjEAEPAu-44" edge="1">
          <mxGeometry width="50" height="50" relative="1" as="geometry">
            <mxPoint x="1034.46" y="-587" as="sourcePoint" />
            <mxPoint x="1190.1149999999998" y="-587.44" as="targetPoint" />
            <Array as="points">
              <mxPoint x="1300" y="-728" />
              <mxPoint x="1300" y="-274" />
            </Array>
          </mxGeometry>
        </mxCell>
        <mxCell id="2SUcwZdlPGgnNjEAEPAu-67" value="" style="endArrow=classic;html=1;rounded=0;entryX=-0.005;entryY=0.798;entryDx=0;entryDy=0;exitX=0.007;exitY=0.343;exitDx=0;exitDy=0;exitPerimeter=0;entryPerimeter=0;" parent="1" source="2SUcwZdlPGgnNjEAEPAu-44" target="2SUcwZdlPGgnNjEAEPAu-56" edge="1">
          <mxGeometry width="50" height="50" relative="1" as="geometry">
            <mxPoint x="1184.46" y="-572" as="sourcePoint" />
            <mxPoint x="1035.48" y="-572.3699999999999" as="targetPoint" />
            <Array as="points">
              <mxPoint x="1290" y="-268" />
              <mxPoint x="1290" y="-735" />
            </Array>
          </mxGeometry>
        </mxCell>
        <mxCell id="2SUcwZdlPGgnNjEAEPAu-68" value="Данные &lt;br&gt;устройства" style="text;html=1;align=center;verticalAlign=middle;resizable=0;points=[];autosize=1;strokeColor=none;fillColor=none;" parent="1" vertex="1">
          <mxGeometry x="1210" y="-637" width="90" height="40" as="geometry" />
        </mxCell>
        <mxCell id="2SUcwZdlPGgnNjEAEPAu-70" value="" style="endArrow=classic;html=1;rounded=0;entryX=0.5;entryY=0;entryDx=0;entryDy=0;exitX=0.5;exitY=1;exitDx=0;exitDy=0;" parent="1" source="2SUcwZdlPGgnNjEAEPAu-56" target="2SUcwZdlPGgnNjEAEPAu-49" edge="1">
          <mxGeometry width="50" height="50" relative="1" as="geometry">
            <mxPoint x="1033.96" y="-661" as="sourcePoint" />
            <mxPoint x="1169.2699999999995" y="-661.5699999999999" as="targetPoint" />
            <Array as="points" />
          </mxGeometry>
        </mxCell>
        <mxCell id="2SUcwZdlPGgnNjEAEPAu-71" value="Команда &lt;br&gt;устройству" style="text;html=1;align=center;verticalAlign=middle;resizable=0;points=[];autosize=1;strokeColor=none;fillColor=none;" parent="1" vertex="1">
          <mxGeometry x="1440" y="-637" width="80" height="40" as="geometry" />
        </mxCell>
        <mxCell id="2SUcwZdlPGgnNjEAEPAu-77" value="" style="endArrow=classic;html=1;rounded=0;exitX=0.137;exitY=1.003;exitDx=0;exitDy=0;exitPerimeter=0;entryX=0.063;entryY=-0.022;entryDx=0;entryDy=0;entryPerimeter=0;" parent="1" edge="1">
          <mxGeometry width="50" height="50" relative="1" as="geometry">
            <mxPoint x="1777" y="-392" as="sourcePoint" />
            <mxPoint x="1777" y="-287" as="targetPoint" />
          </mxGeometry>
        </mxCell>
        <mxCell id="2SUcwZdlPGgnNjEAEPAu-78" value="Данные &lt;br&gt;устройства" style="text;html=1;align=center;verticalAlign=middle;resizable=0;points=[];autosize=1;strokeColor=none;fillColor=none;" parent="1" vertex="1">
          <mxGeometry x="1780" y="-362" width="90" height="40" as="geometry" />
        </mxCell>
        <mxCell id="2SUcwZdlPGgnNjEAEPAu-79" value="" style="endArrow=classic;html=1;rounded=0;exitX=0.802;exitY=0.01;exitDx=0;exitDy=0;exitPerimeter=0;entryX=0.75;entryY=1;entryDx=0;entryDy=0;" parent="1" source="2SUcwZdlPGgnNjEAEPAu-44" target="2SUcwZdlPGgnNjEAEPAu-41" edge="1">
          <mxGeometry width="50" height="50" relative="1" as="geometry">
            <mxPoint x="1870" y="-297" as="sourcePoint" />
            <mxPoint x="1870" y="-192" as="targetPoint" />
          </mxGeometry>
        </mxCell>
        <mxCell id="2SUcwZdlPGgnNjEAEPAu-80" value="5" style="swimlane;childLayout=stackLayout;horizontal=1;startSize=30;horizontalStack=0;rounded=1;fontSize=14;fontStyle=0;strokeWidth=1;resizeParent=0;resizeLast=1;shadow=0;dashed=0;align=center;fillColor=#FFFFFF;" parent="1" vertex="1">
          <mxGeometry x="1360" y="-1072" width="155.45" height="152" as="geometry" />
        </mxCell>
        <mxCell id="2SUcwZdlPGgnNjEAEPAu-81" value="Управлять сценарием" style="align=center;strokeColor=none;fillColor=none;spacingLeft=4;fontSize=12;verticalAlign=middle;resizable=0;rotatable=0;part=1;" parent="2SUcwZdlPGgnNjEAEPAu-80" vertex="1">
          <mxGeometry y="30" width="155.45" height="122" as="geometry" />
        </mxCell>
        <mxCell id="2SUcwZdlPGgnNjEAEPAu-82" value="" style="endArrow=classic;html=1;rounded=0;exitX=0.25;exitY=0;exitDx=0;exitDy=0;entryX=1;entryY=0.5;entryDx=0;entryDy=0;" parent="1" source="2SUcwZdlPGgnNjEAEPAu-15" target="2SUcwZdlPGgnNjEAEPAu-81" edge="1">
          <mxGeometry width="50" height="50" relative="1" as="geometry">
            <mxPoint x="990.0899999999999" y="-1107.58" as="sourcePoint" />
            <mxPoint x="1154.55" y="-1106.74" as="targetPoint" />
            <Array as="points">
              <mxPoint x="1710" y="-980" />
              <mxPoint x="1580" y="-981" />
            </Array>
          </mxGeometry>
        </mxCell>
        <mxCell id="2SUcwZdlPGgnNjEAEPAu-83" value="Сценарий автоматизации" style="text;html=1;align=center;verticalAlign=middle;resizable=0;points=[];autosize=1;strokeColor=none;fillColor=none;" parent="1" vertex="1">
          <mxGeometry x="1535" y="-1011" width="170" height="30" as="geometry" />
        </mxCell>
        <mxCell id="2SUcwZdlPGgnNjEAEPAu-84" value="D4&amp;nbsp; &amp;nbsp; &amp;nbsp;Сценарии&lt;br&gt;&amp;nbsp; &amp;nbsp; &amp;nbsp; &amp;nbsp; &amp;nbsp; автоматизации" style="html=1;dashed=0;whiteSpace=wrap;shape=mxgraph.dfd.dataStoreID;align=left;spacingLeft=3;points=[[0,0],[0.5,0],[1,0],[0,0.5],[1,0.5],[0,1],[0.5,1],[1,1]];" parent="1" vertex="1">
          <mxGeometry x="1010" y="-1072" width="135" height="30" as="geometry" />
        </mxCell>
        <mxCell id="2SUcwZdlPGgnNjEAEPAu-85" value="Сценарий автоматизации" style="text;html=1;align=center;verticalAlign=middle;resizable=0;points=[];autosize=1;strokeColor=none;fillColor=none;" parent="1" vertex="1">
          <mxGeometry x="1170" y="-1090" width="170" height="30" as="geometry" />
        </mxCell>
        <mxCell id="2SUcwZdlPGgnNjEAEPAu-86" value="" style="endArrow=classic;html=1;rounded=0;" parent="1" edge="1">
          <mxGeometry width="50" height="50" relative="1" as="geometry">
            <mxPoint x="1360" y="-1061" as="sourcePoint" />
            <mxPoint x="1150" y="-1061" as="targetPoint" />
          </mxGeometry>
        </mxCell>
        <mxCell id="2SUcwZdlPGgnNjEAEPAu-88" value="Сценарий автоматизации" style="text;html=1;align=center;verticalAlign=middle;resizable=0;points=[];autosize=1;strokeColor=none;fillColor=none;" parent="1" vertex="1">
          <mxGeometry x="1170" y="-1052" width="170" height="30" as="geometry" />
        </mxCell>
        <mxCell id="2SUcwZdlPGgnNjEAEPAu-95" value="" style="endArrow=classic;html=1;rounded=0;entryX=0;entryY=0.5;entryDx=0;entryDy=0;exitX=0;exitY=0.5;exitDx=0;exitDy=0;" parent="1" source="2SUcwZdlPGgnNjEAEPAu-81" target="2SUcwZdlPGgnNjEAEPAu-49" edge="1">
          <mxGeometry width="50" height="50" relative="1" as="geometry">
            <mxPoint x="672" y="-974" as="sourcePoint" />
            <mxPoint x="807.3099999999995" y="-974.5699999999999" as="targetPoint" />
            <Array as="points">
              <mxPoint x="1070" y="-980" />
              <mxPoint x="1070" y="-467" />
            </Array>
          </mxGeometry>
        </mxCell>
        <mxCell id="2SUcwZdlPGgnNjEAEPAu-96" value="Команда устройству" style="text;html=1;align=center;verticalAlign=middle;resizable=0;points=[];autosize=1;strokeColor=none;fillColor=none;" parent="1" vertex="1">
          <mxGeometry x="1130" y="-492" width="140" height="30" as="geometry" />
        </mxCell>
        <mxCell id="2SUcwZdlPGgnNjEAEPAu-99" value="" style="endArrow=classic;html=1;rounded=0;entryX=0.008;entryY=0.139;entryDx=0;entryDy=0;entryPerimeter=0;" parent="1" target="2SUcwZdlPGgnNjEAEPAu-80" edge="1">
          <mxGeometry width="50" height="50" relative="1" as="geometry">
            <mxPoint x="1150" y="-1051" as="sourcePoint" />
            <mxPoint x="1160" y="-1051" as="targetPoint" />
          </mxGeometry>
        </mxCell>
        <mxCell id="2SUcwZdlPGgnNjEAEPAu-101" value="Данные &lt;br&gt;устройства" style="text;html=1;align=center;verticalAlign=middle;resizable=0;points=[];autosize=1;strokeColor=none;fillColor=none;" parent="1" vertex="1">
          <mxGeometry x="960" y="-732" width="90" height="40" as="geometry" />
        </mxCell>
        <mxCell id="2SUcwZdlPGgnNjEAEPAu-102" value="" style="endArrow=classic;html=1;rounded=0;entryX=0;entryY=0.5;entryDx=0;entryDy=0;exitX=0;exitY=0.25;exitDx=0;exitDy=0;" parent="1" source="2SUcwZdlPGgnNjEAEPAu-81" target="2SUcwZdlPGgnNjEAEPAu-44" edge="1">
          <mxGeometry width="50" height="50" relative="1" as="geometry">
            <mxPoint x="978.45" y="-710" as="sourcePoint" />
            <mxPoint x="1304.45" y="-256" as="targetPoint" />
            <Array as="points">
              <mxPoint x="970" y="-1010" />
              <mxPoint x="970" y="-260" />
            </Array>
          </mxGeometry>
        </mxCell>
        <mxCell id="2SUcwZdlPGgnNjEAEPAu-103" value="" style="endArrow=classic;html=1;rounded=0;entryX=-0.016;entryY=0.186;entryDx=0;entryDy=0;exitX=-0.002;exitY=0.669;exitDx=0;exitDy=0;exitPerimeter=0;entryPerimeter=0;" parent="1" source="2SUcwZdlPGgnNjEAEPAu-44" target="2SUcwZdlPGgnNjEAEPAu-81" edge="1">
          <mxGeometry width="50" height="50" relative="1" as="geometry">
            <mxPoint x="1305.45" y="-250" as="sourcePoint" />
            <mxPoint x="979.45" y="-717" as="targetPoint" />
            <Array as="points">
              <mxPoint x="960" y="-250" />
              <mxPoint x="960" y="-1020" />
            </Array>
          </mxGeometry>
        </mxCell>
        <mxCell id="2SUcwZdlPGgnNjEAEPAu-104" value="Данные &lt;br&gt;устройства" style="text;html=1;align=center;verticalAlign=middle;resizable=0;points=[];autosize=1;strokeColor=none;fillColor=none;" parent="1" vertex="1">
          <mxGeometry x="870" y="-732" width="90" height="40" as="geometry" />
        </mxCell>
        <mxCell id="Y_kfvUKKAzM_NIaBV0He-1" value="Данные другого&lt;br&gt;&amp;nbsp;пользователя" style="text;html=1;align=center;verticalAlign=middle;resizable=0;points=[];autosize=1;strokeColor=none;fillColor=none;" vertex="1" parent="1">
          <mxGeometry x="2183.95" y="-670" width="110" height="40" as="geometry" />
        </mxCell>
        <mxCell id="Y_kfvUKKAzM_NIaBV0He-2" value="Данные другого&lt;br&gt;&amp;nbsp;пользователя" style="text;html=1;align=center;verticalAlign=middle;resizable=0;points=[];autosize=1;strokeColor=none;fillColor=none;" vertex="1" parent="1">
          <mxGeometry x="2183.95" y="-620" width="110" height="40" as="geometry" />
        </mxCell>
      </root>
    </mxGraphModel>
  </diagram>
  <diagram id="-AqugUINXaBzboUCbMsi" name="ER-диаграмма в нотации Crow&#39;s Foot">
    <mxGraphModel dx="2580" dy="2307" grid="1" gridSize="10" guides="1" tooltips="1" connect="1" arrows="1" fold="1" page="1" pageScale="1" pageWidth="827" pageHeight="1169" math="0" shadow="0">
      <root>
        <mxCell id="0" />
        <mxCell id="1" parent="0" />
        <mxCell id="ZDpbt0am8818TlwdCO01-1" value="&lt;span style=&quot;font-size: 24px;&quot;&gt;&lt;b&gt;Пользователь&lt;/b&gt;&lt;/span&gt;" style="swimlane;childLayout=stackLayout;horizontal=1;startSize=50;horizontalStack=0;rounded=1;fontSize=14;fontStyle=0;strokeWidth=2;resizeParent=0;resizeLast=1;shadow=0;dashed=0;align=center;arcSize=4;whiteSpace=wrap;html=1;" parent="1" vertex="1">
          <mxGeometry x="30" y="-1070" width="420" height="350" as="geometry" />
        </mxCell>
        <mxCell id="ZDpbt0am8818TlwdCO01-2" value="&lt;font style=&quot;font-size: 18px;&quot;&gt;* Email&lt;/font&gt;&lt;div&gt;&lt;font style=&quot;font-size: 18px;&quot;&gt;&amp;nbsp; Имя пользователя&lt;/font&gt;&lt;/div&gt;&lt;div&gt;&lt;font style=&quot;font-size: 18px;&quot;&gt;&amp;nbsp; Идентификатор дома&lt;/font&gt;&lt;/div&gt;&lt;div&gt;&lt;font style=&quot;font-size: 18px;&quot;&gt;&amp;nbsp; Номер устройства&lt;/font&gt;&lt;/div&gt;&lt;div&gt;&lt;font style=&quot;font-size: 18px;&quot;&gt;&amp;nbsp; Тип устройства&lt;/font&gt;&lt;/div&gt;&lt;div&gt;&lt;font style=&quot;font-size: 18px;&quot;&gt;&amp;nbsp; Статус устройства&lt;/font&gt;&lt;/div&gt;&lt;div&gt;&lt;font style=&quot;font-size: 18px;&quot;&gt;&amp;nbsp; Режим энергосбережения устройства&lt;/font&gt;&lt;/div&gt;&lt;div&gt;&lt;font style=&quot;font-size: 18px;&quot;&gt;&amp;nbsp;&amp;nbsp;&lt;/font&gt;&lt;span style=&quot;font-size: 18px; background-color: transparent; color: light-dark(rgb(0, 0, 0), rgb(255, 255, 255));&quot;&gt;Название комнаты&lt;/span&gt;&lt;/div&gt;&lt;div&gt;&lt;font style=&quot;font-size: 18px;&quot;&gt;&amp;nbsp; Тип комнаты&lt;/font&gt;&lt;/div&gt;&lt;div&gt;&lt;font style=&quot;font-size: 18px;&quot;&gt;&amp;nbsp; Название сценария автоматизации&lt;br&gt;&amp;nbsp; Время запуска сценария&lt;br&gt;&amp;nbsp; День недели запуска сценария&lt;/font&gt;&lt;/div&gt;&lt;div&gt;&lt;span style=&quot;font-size: 18px; background-color: transparent; color: light-dark(rgb(0, 0, 0), rgb(255, 255, 255));&quot;&gt;&amp;nbsp; Назначаемый статус устройства из сценария&lt;/span&gt;&lt;/div&gt;&lt;div&gt;&lt;font style=&quot;font-size: 18px;&quot;&gt;&amp;nbsp;&amp;nbsp;&lt;/font&gt;&lt;/div&gt;" style="align=left;strokeColor=none;fillColor=none;spacingLeft=4;fontSize=12;verticalAlign=top;resizable=0;rotatable=0;part=1;html=1;" parent="ZDpbt0am8818TlwdCO01-1" vertex="1">
          <mxGeometry y="50" width="420" height="300" as="geometry" />
        </mxCell>
        <mxCell id="ZDpbt0am8818TlwdCO01-3" value="&lt;b style=&quot;forced-color-adjust: none; color: rgb(0, 0, 0); font-family: Helvetica; font-style: normal; font-variant-ligatures: normal; font-variant-caps: normal; letter-spacing: normal; orphans: 2; text-indent: 0px; text-transform: none; widows: 2; word-spacing: 0px; -webkit-text-stroke-width: 0px; white-space: normal; text-decoration-thickness: initial; text-decoration-style: initial; text-decoration-color: initial; font-size: 42px; text-align: center; background-color: rgb(248, 249, 250);&quot;&gt;Логическая ER-модель в 0 НФ&lt;/b&gt;" style="text;whiteSpace=wrap;html=1;" parent="1" vertex="1">
          <mxGeometry x="20" y="-1150" width="680" height="120" as="geometry" />
        </mxCell>
        <mxCell id="ZDpbt0am8818TlwdCO01-4" value="&lt;b style=&quot;forced-color-adjust: none; color: rgb(0, 0, 0); font-family: Helvetica; font-style: normal; font-variant-ligatures: normal; font-variant-caps: normal; letter-spacing: normal; orphans: 2; text-indent: 0px; text-transform: none; widows: 2; word-spacing: 0px; -webkit-text-stroke-width: 0px; white-space: normal; text-decoration-thickness: initial; text-decoration-style: initial; text-decoration-color: initial; font-size: 42px; text-align: center; background-color: rgb(248, 249, 250);&quot;&gt;Логическая ER-модель в 1 НФ&lt;/b&gt;" style="text;whiteSpace=wrap;html=1;" parent="1" vertex="1">
          <mxGeometry x="20" y="-690" width="680" height="120" as="geometry" />
        </mxCell>
        <mxCell id="ZDpbt0am8818TlwdCO01-28" value="&lt;b style=&quot;forced-color-adjust: none; color: rgb(0, 0, 0); font-family: Helvetica; font-style: normal; font-variant-ligatures: normal; font-variant-caps: normal; letter-spacing: normal; orphans: 2; text-indent: 0px; text-transform: none; widows: 2; word-spacing: 0px; -webkit-text-stroke-width: 0px; white-space: normal; text-decoration-thickness: initial; text-decoration-style: initial; text-decoration-color: initial; font-size: 42px; text-align: center; background-color: rgb(248, 249, 250);&quot;&gt;Логическая ER-модель в 2 НФ&lt;/b&gt;" style="text;whiteSpace=wrap;html=1;" parent="1" vertex="1">
          <mxGeometry x="35" y="160" width="680" height="120" as="geometry" />
        </mxCell>
        <mxCell id="ZDpbt0am8818TlwdCO01-45" value="&lt;font style=&quot;font-size: 18px;&quot;&gt;ER-модель уже приведена в 2 НФ, т.к. в сущностях нет атрибутов, зависящих только от части первичного ключа&lt;/font&gt;" style="text;html=1;align=center;verticalAlign=middle;resizable=0;points=[];autosize=1;strokeColor=none;fillColor=none;" parent="1" vertex="1">
          <mxGeometry x="25" y="260" width="960" height="40" as="geometry" />
        </mxCell>
        <mxCell id="ZDpbt0am8818TlwdCO01-46" value="&lt;b style=&quot;forced-color-adjust: none; color: rgb(0, 0, 0); font-family: Helvetica; font-style: normal; font-variant-ligatures: normal; font-variant-caps: normal; letter-spacing: normal; orphans: 2; text-indent: 0px; text-transform: none; widows: 2; word-spacing: 0px; -webkit-text-stroke-width: 0px; white-space: normal; text-decoration-thickness: initial; text-decoration-style: initial; text-decoration-color: initial; font-size: 42px; text-align: center; background-color: rgb(248, 249, 250);&quot;&gt;Логическая ER-модель в 3 НФ&lt;/b&gt;" style="text;whiteSpace=wrap;html=1;" parent="1" vertex="1">
          <mxGeometry x="30" y="1150" width="680" height="120" as="geometry" />
        </mxCell>
        <mxCell id="ZDpbt0am8818TlwdCO01-62" value="&lt;font style=&quot;font-size: 18px;&quot;&gt;ER-модель уже приведена в 3 НФ, т.к. в сущностях нет неключевых атрибутов, зависящих от других неключевых атрибутов&lt;/font&gt;" style="text;html=1;align=center;verticalAlign=middle;resizable=0;points=[];autosize=1;strokeColor=none;fillColor=none;" parent="1" vertex="1">
          <mxGeometry x="25" y="1230" width="1060" height="40" as="geometry" />
        </mxCell>
        <mxCell id="ZDpbt0am8818TlwdCO01-78" value="&lt;span style=&quot;font-size: 24px;&quot;&gt;&lt;b&gt;Пользователь&lt;/b&gt;&lt;/span&gt;" style="swimlane;childLayout=stackLayout;horizontal=1;startSize=50;horizontalStack=0;rounded=1;fontSize=14;fontStyle=0;strokeWidth=2;resizeParent=0;resizeLast=1;shadow=0;dashed=0;align=center;arcSize=4;whiteSpace=wrap;html=1;" parent="1" vertex="1">
          <mxGeometry x="30" y="-293" width="190" height="110" as="geometry" />
        </mxCell>
        <mxCell id="ZDpbt0am8818TlwdCO01-79" value="&lt;font style=&quot;font-size: 18px;&quot;&gt;* Email&lt;/font&gt;&lt;div&gt;&lt;font style=&quot;font-size: 18px;&quot;&gt;&amp;nbsp; Имя пользователя&lt;/font&gt;&lt;/div&gt;&lt;div&gt;&lt;font style=&quot;font-size: 18px;&quot;&gt;&amp;nbsp;&amp;nbsp;&lt;/font&gt;&lt;/div&gt;" style="align=left;strokeColor=none;fillColor=none;spacingLeft=4;fontSize=12;verticalAlign=top;resizable=0;rotatable=0;part=1;html=1;" parent="ZDpbt0am8818TlwdCO01-78" vertex="1">
          <mxGeometry y="50" width="190" height="60" as="geometry" />
        </mxCell>
        <mxCell id="ZDpbt0am8818TlwdCO01-80" value="&lt;span style=&quot;font-size: 24px;&quot;&gt;&lt;b&gt;Устройство&lt;/b&gt;&lt;/span&gt;" style="swimlane;childLayout=stackLayout;horizontal=1;startSize=50;horizontalStack=0;rounded=1;fontSize=14;fontStyle=0;strokeWidth=2;resizeParent=0;resizeLast=1;shadow=0;dashed=0;align=center;arcSize=4;whiteSpace=wrap;html=1;" parent="1" vertex="1">
          <mxGeometry x="340" y="-400" width="335" height="150" as="geometry" />
        </mxCell>
        <mxCell id="ZDpbt0am8818TlwdCO01-81" value="&lt;div&gt;&lt;font style=&quot;font-size: 18px;&quot;&gt;* Номер устройства&lt;/font&gt;&lt;/div&gt;&lt;div&gt;&lt;font style=&quot;font-size: 18px;&quot;&gt;&amp;nbsp; Тип устройства&lt;/font&gt;&lt;/div&gt;&lt;div&gt;&lt;font style=&quot;font-size: 18px;&quot;&gt;&amp;nbsp; Статус устройства&lt;/font&gt;&lt;/div&gt;&lt;div&gt;&lt;font style=&quot;font-size: 18px;&quot;&gt;&amp;nbsp; Режим энергосбережения устройства&lt;/font&gt;&lt;/div&gt;" style="align=left;strokeColor=none;fillColor=none;spacingLeft=4;fontSize=12;verticalAlign=top;resizable=0;rotatable=0;part=1;html=1;" parent="ZDpbt0am8818TlwdCO01-80" vertex="1">
          <mxGeometry y="50" width="335" height="100" as="geometry" />
        </mxCell>
        <mxCell id="ZDpbt0am8818TlwdCO01-82" value="&lt;span style=&quot;font-size: 24px;&quot;&gt;&lt;b&gt;Комната&lt;/b&gt;&lt;/span&gt;" style="swimlane;childLayout=stackLayout;horizontal=1;startSize=50;horizontalStack=0;rounded=1;fontSize=14;fontStyle=0;strokeWidth=2;resizeParent=0;resizeLast=1;shadow=0;dashed=0;align=center;arcSize=4;whiteSpace=wrap;html=1;" parent="1" vertex="1">
          <mxGeometry x="1085" y="-390" width="190" height="110" as="geometry" />
        </mxCell>
        <mxCell id="ZDpbt0am8818TlwdCO01-83" value="&lt;font style=&quot;font-size: 18px;&quot;&gt;*&amp;nbsp;&lt;span style=&quot;background-color: transparent; color: light-dark(rgb(0, 0, 0), rgb(255, 255, 255));&quot;&gt;Название комнаты&lt;/span&gt;&lt;div style=&quot;font-size: 12px;&quot;&gt;&lt;font style=&quot;font-size: 18px;&quot;&gt;&amp;nbsp; Тип комнаты&lt;/font&gt;&lt;/div&gt;&lt;/font&gt;" style="align=left;strokeColor=none;fillColor=none;spacingLeft=4;fontSize=12;verticalAlign=top;resizable=0;rotatable=0;part=1;html=1;" parent="ZDpbt0am8818TlwdCO01-82" vertex="1">
          <mxGeometry y="50" width="190" height="60" as="geometry" />
        </mxCell>
        <mxCell id="ZDpbt0am8818TlwdCO01-84" value="&lt;span style=&quot;font-size: 24px;&quot;&gt;&lt;b&gt;Сценарий автоматизации&lt;/b&gt;&lt;/span&gt;" style="swimlane;childLayout=stackLayout;horizontal=1;startSize=50;horizontalStack=0;rounded=1;fontSize=14;fontStyle=0;strokeWidth=2;resizeParent=0;resizeLast=1;shadow=0;dashed=0;align=center;arcSize=4;whiteSpace=wrap;html=1;" parent="1" vertex="1">
          <mxGeometry x="340" y="-183" width="410" height="123" as="geometry" />
        </mxCell>
        <mxCell id="ZDpbt0am8818TlwdCO01-85" value="&lt;div&gt;&lt;font style=&quot;font-size: 18px;&quot;&gt;*&amp;nbsp;&lt;/font&gt;&lt;span style=&quot;font-size: 18px; background-color: light-dark(rgb(251, 251, 251), rgb(21, 21, 21)); color: light-dark(rgb(0, 0, 0), rgb(237, 237, 237));&quot;&gt;Название сценария автоматизации&lt;/span&gt;&lt;/div&gt;&lt;div style=&quot;color: rgb(0, 0, 0); background-color: rgb(251, 251, 251);&quot;&gt;&lt;font style=&quot;font-size: 18px;&quot;&gt;&amp;nbsp; Время запуска сценария&lt;/font&gt;&lt;/div&gt;&lt;div style=&quot;color: rgb(0, 0, 0); background-color: rgb(251, 251, 251);&quot;&gt;&lt;font style=&quot;font-size: 18px;&quot;&gt;&amp;nbsp;&amp;nbsp;&lt;/font&gt;&lt;/div&gt;" style="align=left;strokeColor=none;fillColor=none;spacingLeft=4;fontSize=12;verticalAlign=top;resizable=0;rotatable=0;part=1;html=1;" parent="ZDpbt0am8818TlwdCO01-84" vertex="1">
          <mxGeometry y="50" width="410" height="73" as="geometry" />
        </mxCell>
        <mxCell id="ZDpbt0am8818TlwdCO01-87" value="" style="edgeStyle=entityRelationEdgeStyle;fontSize=12;html=1;endArrow=ERzeroToMany;startArrow=ERzeroToOne;rounded=0;entryX=1;entryY=0.25;entryDx=0;entryDy=0;exitX=0;exitY=0.25;exitDx=0;exitDy=0;" parent="1" source="ZDpbt0am8818TlwdCO01-83" target="ZDpbt0am8818TlwdCO01-81" edge="1">
          <mxGeometry width="100" height="100" relative="1" as="geometry">
            <mxPoint x="580" y="-50" as="sourcePoint" />
            <mxPoint x="680" y="-150" as="targetPoint" />
          </mxGeometry>
        </mxCell>
        <mxCell id="ZDpbt0am8818TlwdCO01-88" value="" style="edgeStyle=entityRelationEdgeStyle;fontSize=12;html=1;endArrow=ERzeroToMany;startArrow=ERmandOne;rounded=0;exitX=1;exitY=0.5;exitDx=0;exitDy=0;entryX=0;entryY=0.25;entryDx=0;entryDy=0;" parent="1" source="ZDpbt0am8818TlwdCO01-79" target="ZDpbt0am8818TlwdCO01-85" edge="1">
          <mxGeometry width="100" height="100" relative="1" as="geometry">
            <mxPoint x="370" y="-40" as="sourcePoint" />
            <mxPoint x="470" y="-140" as="targetPoint" />
            <Array as="points">
              <mxPoint x="190" y="-80" />
            </Array>
          </mxGeometry>
        </mxCell>
        <mxCell id="ZDpbt0am8818TlwdCO01-89" value="" style="edgeStyle=entityRelationEdgeStyle;fontSize=12;html=1;endArrow=ERoneToMany;startArrow=ERmandOne;rounded=0;entryX=0;entryY=0.5;entryDx=0;entryDy=0;" parent="1" target="ZDpbt0am8818TlwdCO01-92" edge="1">
          <mxGeometry width="100" height="100" relative="1" as="geometry">
            <mxPoint x="750" y="-130" as="sourcePoint" />
            <mxPoint x="827" y="-127.5" as="targetPoint" />
          </mxGeometry>
        </mxCell>
        <mxCell id="ZDpbt0am8818TlwdCO01-90" value="" style="edgeStyle=entityRelationEdgeStyle;fontSize=12;html=1;endArrow=ERzeroToMany;startArrow=ERmandOne;rounded=0;entryX=0;entryY=0.25;entryDx=0;entryDy=0;exitX=1;exitY=0.75;exitDx=0;exitDy=0;" parent="1" source="ZDpbt0am8818TlwdCO01-81" target="ZDpbt0am8818TlwdCO01-91" edge="1">
          <mxGeometry width="100" height="100" relative="1" as="geometry">
            <mxPoint x="590" y="-170" as="sourcePoint" />
            <mxPoint x="827" y="-182.5" as="targetPoint" />
          </mxGeometry>
        </mxCell>
        <mxCell id="ZDpbt0am8818TlwdCO01-91" value="&lt;span style=&quot;font-size: 24px;&quot;&gt;&lt;b&gt;Устройства из сценария&lt;/b&gt;&lt;/span&gt;" style="swimlane;childLayout=stackLayout;horizontal=1;startSize=50;horizontalStack=0;rounded=1;fontSize=14;fontStyle=0;strokeWidth=2;resizeParent=0;resizeLast=1;shadow=0;dashed=0;align=center;arcSize=4;whiteSpace=wrap;html=1;" parent="1" vertex="1">
          <mxGeometry x="860" y="-230" width="410" height="150" as="geometry" />
        </mxCell>
        <mxCell id="ZDpbt0am8818TlwdCO01-92" value="&lt;font style=&quot;font-size: 18px;&quot;&gt;* Название сценария автоматизации&lt;div style=&quot;font-size: 12px;&quot;&gt;&lt;span style=&quot;font-size: 18px;&quot;&gt;* Номер устройства&lt;/span&gt;&lt;/div&gt;&lt;div style=&quot;font-size: 12px;&quot;&gt;&lt;span style=&quot;font-size: 18px; background-color: transparent; color: light-dark(rgb(0, 0, 0), rgb(255, 255, 255));&quot;&gt;&amp;nbsp; Назначаемый статус устройства из сценария&lt;/span&gt;&lt;/div&gt;&lt;/font&gt;" style="align=left;strokeColor=none;fillColor=none;spacingLeft=4;fontSize=12;verticalAlign=top;resizable=0;rotatable=0;part=1;html=1;" parent="ZDpbt0am8818TlwdCO01-91" vertex="1">
          <mxGeometry y="50" width="410" height="100" as="geometry" />
        </mxCell>
        <mxCell id="CI6bG_chYX4MwjsH_pNR-1" value="&lt;span style=&quot;font-size: 24px;&quot;&gt;&lt;b&gt;Дом&lt;/b&gt;&lt;/span&gt;" style="swimlane;childLayout=stackLayout;horizontal=1;startSize=50;horizontalStack=0;rounded=1;fontSize=14;fontStyle=0;strokeWidth=2;resizeParent=0;resizeLast=1;shadow=0;dashed=0;align=center;arcSize=4;whiteSpace=wrap;html=1;" vertex="1" parent="1">
          <mxGeometry x="750" y="-550" width="230" height="90" as="geometry" />
        </mxCell>
        <mxCell id="CI6bG_chYX4MwjsH_pNR-2" value="&lt;font style=&quot;font-size: 18px;&quot;&gt;*&amp;nbsp;&lt;span style=&quot;background-color: transparent; color: light-dark(rgb(0, 0, 0), rgb(255, 255, 255));&quot;&gt;Идентификатор дома&lt;/span&gt;&lt;/font&gt;" style="align=left;strokeColor=none;fillColor=none;spacingLeft=4;fontSize=12;verticalAlign=top;resizable=0;rotatable=0;part=1;html=1;" vertex="1" parent="CI6bG_chYX4MwjsH_pNR-1">
          <mxGeometry y="50" width="230" height="40" as="geometry" />
        </mxCell>
        <mxCell id="CI6bG_chYX4MwjsH_pNR-4" value="&lt;span style=&quot;font-size: 24px;&quot;&gt;&lt;b&gt;Дом пользователя&lt;/b&gt;&lt;/span&gt;" style="swimlane;childLayout=stackLayout;horizontal=1;startSize=50;horizontalStack=0;rounded=1;fontSize=14;fontStyle=0;strokeWidth=2;resizeParent=0;resizeLast=1;shadow=0;dashed=0;align=center;arcSize=4;whiteSpace=wrap;html=1;" vertex="1" parent="1">
          <mxGeometry x="340" y="-560" width="260" height="110" as="geometry" />
        </mxCell>
        <mxCell id="CI6bG_chYX4MwjsH_pNR-5" value="&lt;font style=&quot;font-size: 18px;&quot;&gt;* Email&lt;br&gt;&lt;span style=&quot;background-color: transparent; color: light-dark(rgb(0, 0, 0), rgb(255, 255, 255));&quot;&gt;* Идентификатор дома&lt;/span&gt;&lt;/font&gt;" style="align=left;strokeColor=none;fillColor=none;spacingLeft=4;fontSize=12;verticalAlign=top;resizable=0;rotatable=0;part=1;html=1;" vertex="1" parent="CI6bG_chYX4MwjsH_pNR-4">
          <mxGeometry y="50" width="260" height="60" as="geometry" />
        </mxCell>
        <mxCell id="CI6bG_chYX4MwjsH_pNR-6" value="" style="edgeStyle=entityRelationEdgeStyle;fontSize=12;html=1;endArrow=ERoneToMany;startArrow=ERmandOne;rounded=0;exitX=1;exitY=0.25;exitDx=0;exitDy=0;entryX=0;entryY=0;entryDx=0;entryDy=0;" edge="1" parent="1" source="ZDpbt0am8818TlwdCO01-78" target="CI6bG_chYX4MwjsH_pNR-5">
          <mxGeometry width="100" height="100" relative="1" as="geometry">
            <mxPoint x="550" y="-320" as="sourcePoint" />
            <mxPoint x="650" y="-420" as="targetPoint" />
          </mxGeometry>
        </mxCell>
        <mxCell id="CI6bG_chYX4MwjsH_pNR-7" value="" style="edgeStyle=entityRelationEdgeStyle;fontSize=12;html=1;endArrow=ERoneToMany;startArrow=ERmandOne;rounded=0;entryX=1;entryY=0.5;entryDx=0;entryDy=0;exitX=0;exitY=0.5;exitDx=0;exitDy=0;" edge="1" parent="1" source="CI6bG_chYX4MwjsH_pNR-1" target="CI6bG_chYX4MwjsH_pNR-4">
          <mxGeometry width="100" height="100" relative="1" as="geometry">
            <mxPoint x="550" y="-320" as="sourcePoint" />
            <mxPoint x="650" y="-420" as="targetPoint" />
          </mxGeometry>
        </mxCell>
        <mxCell id="CI6bG_chYX4MwjsH_pNR-8" value="&lt;span style=&quot;font-size: 24px;&quot;&gt;&lt;b&gt;День недели&lt;/b&gt;&lt;/span&gt;" style="swimlane;childLayout=stackLayout;horizontal=1;startSize=50;horizontalStack=0;rounded=1;fontSize=14;fontStyle=0;strokeWidth=2;resizeParent=0;resizeLast=1;shadow=0;dashed=0;align=center;arcSize=4;whiteSpace=wrap;html=1;" vertex="1" parent="1">
          <mxGeometry x="1313" y="-20" width="287" height="90" as="geometry" />
        </mxCell>
        <mxCell id="CI6bG_chYX4MwjsH_pNR-9" value="&lt;font style=&quot;font-size: 18px;&quot;&gt;*&amp;nbsp;&lt;span style=&quot;background-color: transparent; color: light-dark(rgb(0, 0, 0), rgb(255, 255, 255));&quot;&gt;День недели&lt;/span&gt;&lt;/font&gt;" style="align=left;strokeColor=none;fillColor=none;spacingLeft=4;fontSize=12;verticalAlign=top;resizable=0;rotatable=0;part=1;html=1;" vertex="1" parent="CI6bG_chYX4MwjsH_pNR-8">
          <mxGeometry y="50" width="287" height="40" as="geometry" />
        </mxCell>
        <mxCell id="CI6bG_chYX4MwjsH_pNR-10" value="&lt;span style=&quot;font-size: 24px;&quot;&gt;&lt;b&gt;День недели в сценарии&lt;/b&gt;&lt;/span&gt;" style="swimlane;childLayout=stackLayout;horizontal=1;startSize=50;horizontalStack=0;rounded=1;fontSize=14;fontStyle=0;strokeWidth=2;resizeParent=0;resizeLast=1;shadow=0;dashed=0;align=center;arcSize=4;whiteSpace=wrap;html=1;" vertex="1" parent="1">
          <mxGeometry x="860" y="-20" width="353" height="110" as="geometry" />
        </mxCell>
        <mxCell id="CI6bG_chYX4MwjsH_pNR-11" value="&lt;font style=&quot;font-size: 18px;&quot;&gt;*&amp;nbsp;&lt;/font&gt;&lt;span style=&quot;font-size: 18px;&quot;&gt;Название сценария автоматизации&lt;br&gt;* День недели&lt;/span&gt;" style="align=left;strokeColor=none;fillColor=none;spacingLeft=4;fontSize=12;verticalAlign=top;resizable=0;rotatable=0;part=1;html=1;" vertex="1" parent="CI6bG_chYX4MwjsH_pNR-10">
          <mxGeometry y="50" width="353" height="60" as="geometry" />
        </mxCell>
        <mxCell id="CI6bG_chYX4MwjsH_pNR-12" value="" style="edgeStyle=entityRelationEdgeStyle;fontSize=12;html=1;endArrow=ERzeroToMany;startArrow=ERmandOne;rounded=0;exitX=1;exitY=0.75;exitDx=0;exitDy=0;entryX=0;entryY=0.5;entryDx=0;entryDy=0;" edge="1" parent="1" source="ZDpbt0am8818TlwdCO01-85" target="CI6bG_chYX4MwjsH_pNR-10">
          <mxGeometry width="100" height="100" relative="1" as="geometry">
            <mxPoint x="600" y="-30" as="sourcePoint" />
            <mxPoint x="700" y="-130" as="targetPoint" />
          </mxGeometry>
        </mxCell>
        <mxCell id="CI6bG_chYX4MwjsH_pNR-13" value="" style="edgeStyle=entityRelationEdgeStyle;fontSize=12;html=1;endArrow=ERzeroToMany;startArrow=ERmandOne;rounded=0;exitX=0;exitY=0;exitDx=0;exitDy=0;entryX=1;entryY=0;entryDx=0;entryDy=0;" edge="1" parent="1" source="CI6bG_chYX4MwjsH_pNR-9" target="CI6bG_chYX4MwjsH_pNR-11">
          <mxGeometry width="100" height="100" relative="1" as="geometry">
            <mxPoint x="1183" y="80" as="sourcePoint" />
            <mxPoint x="1283" y="-20" as="targetPoint" />
          </mxGeometry>
        </mxCell>
        <mxCell id="CI6bG_chYX4MwjsH_pNR-14" value="" style="edgeStyle=entityRelationEdgeStyle;fontSize=12;html=1;endArrow=ERzeroToMany;startArrow=ERmandOne;rounded=0;exitX=1;exitY=0;exitDx=0;exitDy=0;entryX=0;entryY=0.25;entryDx=0;entryDy=0;" edge="1" parent="1" source="CI6bG_chYX4MwjsH_pNR-2" target="ZDpbt0am8818TlwdCO01-82">
          <mxGeometry width="100" height="100" relative="1" as="geometry">
            <mxPoint x="560" y="-210" as="sourcePoint" />
            <mxPoint x="660" y="-310" as="targetPoint" />
          </mxGeometry>
        </mxCell>
        <mxCell id="CI6bG_chYX4MwjsH_pNR-15" value="" style="edgeStyle=entityRelationEdgeStyle;fontSize=12;html=1;endArrow=ERzeroToMany;startArrow=ERmandOne;rounded=0;entryX=1;entryY=0.25;entryDx=0;entryDy=0;exitX=0;exitY=0.75;exitDx=0;exitDy=0;" edge="1" parent="1" source="CI6bG_chYX4MwjsH_pNR-1" target="ZDpbt0am8818TlwdCO01-80">
          <mxGeometry width="100" height="100" relative="1" as="geometry">
            <mxPoint x="560" y="-210" as="sourcePoint" />
            <mxPoint x="660" y="-310" as="targetPoint" />
          </mxGeometry>
        </mxCell>
        <mxCell id="CI6bG_chYX4MwjsH_pNR-215" value="&lt;span style=&quot;font-size: 24px;&quot;&gt;&lt;b&gt;Пользователь&lt;/b&gt;&lt;/span&gt;" style="swimlane;childLayout=stackLayout;horizontal=1;startSize=50;horizontalStack=0;rounded=1;fontSize=14;fontStyle=0;strokeWidth=2;resizeParent=0;resizeLast=1;shadow=0;dashed=0;align=center;arcSize=4;whiteSpace=wrap;html=1;" vertex="1" parent="1">
          <mxGeometry x="40" y="647" width="190" height="110" as="geometry" />
        </mxCell>
        <mxCell id="CI6bG_chYX4MwjsH_pNR-216" value="&lt;font style=&quot;font-size: 18px;&quot;&gt;* Email&lt;/font&gt;&lt;div&gt;&lt;font style=&quot;font-size: 18px;&quot;&gt;&amp;nbsp; Имя пользователя&lt;/font&gt;&lt;/div&gt;&lt;div&gt;&lt;font style=&quot;font-size: 18px;&quot;&gt;&amp;nbsp;&amp;nbsp;&lt;/font&gt;&lt;/div&gt;" style="align=left;strokeColor=none;fillColor=none;spacingLeft=4;fontSize=12;verticalAlign=top;resizable=0;rotatable=0;part=1;html=1;" vertex="1" parent="CI6bG_chYX4MwjsH_pNR-215">
          <mxGeometry y="50" width="190" height="60" as="geometry" />
        </mxCell>
        <mxCell id="CI6bG_chYX4MwjsH_pNR-217" value="&lt;span style=&quot;font-size: 24px;&quot;&gt;&lt;b&gt;Устройство&lt;/b&gt;&lt;/span&gt;" style="swimlane;childLayout=stackLayout;horizontal=1;startSize=50;horizontalStack=0;rounded=1;fontSize=14;fontStyle=0;strokeWidth=2;resizeParent=0;resizeLast=1;shadow=0;dashed=0;align=center;arcSize=4;whiteSpace=wrap;html=1;" vertex="1" parent="1">
          <mxGeometry x="350" y="540" width="335" height="150" as="geometry" />
        </mxCell>
        <mxCell id="CI6bG_chYX4MwjsH_pNR-218" value="&lt;div&gt;&lt;font style=&quot;font-size: 18px;&quot;&gt;* Номер устройства&lt;/font&gt;&lt;/div&gt;&lt;div&gt;&lt;font style=&quot;font-size: 18px;&quot;&gt;&amp;nbsp; Тип устройства&lt;/font&gt;&lt;/div&gt;&lt;div&gt;&lt;font style=&quot;font-size: 18px;&quot;&gt;&amp;nbsp; Статус устройства&lt;/font&gt;&lt;/div&gt;&lt;div&gt;&lt;font style=&quot;font-size: 18px;&quot;&gt;&amp;nbsp; Режим энергосбережения устройства&lt;/font&gt;&lt;/div&gt;" style="align=left;strokeColor=none;fillColor=none;spacingLeft=4;fontSize=12;verticalAlign=top;resizable=0;rotatable=0;part=1;html=1;" vertex="1" parent="CI6bG_chYX4MwjsH_pNR-217">
          <mxGeometry y="50" width="335" height="100" as="geometry" />
        </mxCell>
        <mxCell id="CI6bG_chYX4MwjsH_pNR-219" value="&lt;span style=&quot;font-size: 24px;&quot;&gt;&lt;b&gt;Комната&lt;/b&gt;&lt;/span&gt;" style="swimlane;childLayout=stackLayout;horizontal=1;startSize=50;horizontalStack=0;rounded=1;fontSize=14;fontStyle=0;strokeWidth=2;resizeParent=0;resizeLast=1;shadow=0;dashed=0;align=center;arcSize=4;whiteSpace=wrap;html=1;" vertex="1" parent="1">
          <mxGeometry x="1095" y="550" width="190" height="110" as="geometry" />
        </mxCell>
        <mxCell id="CI6bG_chYX4MwjsH_pNR-220" value="&lt;font style=&quot;font-size: 18px;&quot;&gt;*&amp;nbsp;&lt;span style=&quot;background-color: transparent; color: light-dark(rgb(0, 0, 0), rgb(255, 255, 255));&quot;&gt;Название комнаты&lt;/span&gt;&lt;div style=&quot;font-size: 12px;&quot;&gt;&lt;font style=&quot;font-size: 18px;&quot;&gt;&amp;nbsp; Тип комнаты&lt;/font&gt;&lt;/div&gt;&lt;/font&gt;" style="align=left;strokeColor=none;fillColor=none;spacingLeft=4;fontSize=12;verticalAlign=top;resizable=0;rotatable=0;part=1;html=1;" vertex="1" parent="CI6bG_chYX4MwjsH_pNR-219">
          <mxGeometry y="50" width="190" height="60" as="geometry" />
        </mxCell>
        <mxCell id="CI6bG_chYX4MwjsH_pNR-221" value="&lt;span style=&quot;font-size: 24px;&quot;&gt;&lt;b&gt;Сценарий автоматизации&lt;/b&gt;&lt;/span&gt;" style="swimlane;childLayout=stackLayout;horizontal=1;startSize=50;horizontalStack=0;rounded=1;fontSize=14;fontStyle=0;strokeWidth=2;resizeParent=0;resizeLast=1;shadow=0;dashed=0;align=center;arcSize=4;whiteSpace=wrap;html=1;" vertex="1" parent="1">
          <mxGeometry x="350" y="757" width="410" height="123" as="geometry" />
        </mxCell>
        <mxCell id="CI6bG_chYX4MwjsH_pNR-222" value="&lt;div&gt;&lt;font style=&quot;font-size: 18px;&quot;&gt;*&amp;nbsp;&lt;/font&gt;&lt;span style=&quot;font-size: 18px; background-color: light-dark(rgb(251, 251, 251), rgb(21, 21, 21)); color: light-dark(rgb(0, 0, 0), rgb(237, 237, 237));&quot;&gt;Название сценария автоматизации&lt;/span&gt;&lt;/div&gt;&lt;div style=&quot;color: rgb(0, 0, 0); background-color: rgb(251, 251, 251);&quot;&gt;&lt;font style=&quot;font-size: 18px;&quot;&gt;&amp;nbsp; Время запуска сценария&lt;/font&gt;&lt;/div&gt;&lt;div style=&quot;color: rgb(0, 0, 0); background-color: rgb(251, 251, 251);&quot;&gt;&lt;font style=&quot;font-size: 18px;&quot;&gt;&amp;nbsp;&amp;nbsp;&lt;/font&gt;&lt;/div&gt;" style="align=left;strokeColor=none;fillColor=none;spacingLeft=4;fontSize=12;verticalAlign=top;resizable=0;rotatable=0;part=1;html=1;" vertex="1" parent="CI6bG_chYX4MwjsH_pNR-221">
          <mxGeometry y="50" width="410" height="73" as="geometry" />
        </mxCell>
        <mxCell id="CI6bG_chYX4MwjsH_pNR-223" value="" style="edgeStyle=entityRelationEdgeStyle;fontSize=12;html=1;endArrow=ERzeroToMany;startArrow=ERzeroToOne;rounded=0;entryX=1;entryY=0.25;entryDx=0;entryDy=0;exitX=0;exitY=0.25;exitDx=0;exitDy=0;" edge="1" parent="1" source="CI6bG_chYX4MwjsH_pNR-220" target="CI6bG_chYX4MwjsH_pNR-218">
          <mxGeometry width="100" height="100" relative="1" as="geometry">
            <mxPoint x="590" y="890" as="sourcePoint" />
            <mxPoint x="690" y="790" as="targetPoint" />
          </mxGeometry>
        </mxCell>
        <mxCell id="CI6bG_chYX4MwjsH_pNR-224" value="" style="edgeStyle=entityRelationEdgeStyle;fontSize=12;html=1;endArrow=ERzeroToMany;startArrow=ERmandOne;rounded=0;exitX=1;exitY=0.5;exitDx=0;exitDy=0;entryX=0;entryY=0.25;entryDx=0;entryDy=0;" edge="1" parent="1" source="CI6bG_chYX4MwjsH_pNR-216" target="CI6bG_chYX4MwjsH_pNR-222">
          <mxGeometry width="100" height="100" relative="1" as="geometry">
            <mxPoint x="380" y="900" as="sourcePoint" />
            <mxPoint x="480" y="800" as="targetPoint" />
            <Array as="points">
              <mxPoint x="200" y="860" />
            </Array>
          </mxGeometry>
        </mxCell>
        <mxCell id="CI6bG_chYX4MwjsH_pNR-225" value="" style="edgeStyle=entityRelationEdgeStyle;fontSize=12;html=1;endArrow=ERoneToMany;startArrow=ERmandOne;rounded=0;entryX=0;entryY=0.5;entryDx=0;entryDy=0;" edge="1" parent="1" target="CI6bG_chYX4MwjsH_pNR-228">
          <mxGeometry width="100" height="100" relative="1" as="geometry">
            <mxPoint x="760" y="810" as="sourcePoint" />
            <mxPoint x="837" y="812.5" as="targetPoint" />
          </mxGeometry>
        </mxCell>
        <mxCell id="CI6bG_chYX4MwjsH_pNR-226" value="" style="edgeStyle=entityRelationEdgeStyle;fontSize=12;html=1;endArrow=ERzeroToMany;startArrow=ERmandOne;rounded=0;entryX=0;entryY=0.25;entryDx=0;entryDy=0;exitX=1;exitY=0.75;exitDx=0;exitDy=0;" edge="1" parent="1" source="CI6bG_chYX4MwjsH_pNR-218" target="CI6bG_chYX4MwjsH_pNR-227">
          <mxGeometry width="100" height="100" relative="1" as="geometry">
            <mxPoint x="600" y="770" as="sourcePoint" />
            <mxPoint x="837" y="757.5" as="targetPoint" />
          </mxGeometry>
        </mxCell>
        <mxCell id="CI6bG_chYX4MwjsH_pNR-227" value="&lt;span style=&quot;font-size: 24px;&quot;&gt;&lt;b&gt;Устройства из сценария&lt;/b&gt;&lt;/span&gt;" style="swimlane;childLayout=stackLayout;horizontal=1;startSize=50;horizontalStack=0;rounded=1;fontSize=14;fontStyle=0;strokeWidth=2;resizeParent=0;resizeLast=1;shadow=0;dashed=0;align=center;arcSize=4;whiteSpace=wrap;html=1;" vertex="1" parent="1">
          <mxGeometry x="870" y="710" width="410" height="150" as="geometry" />
        </mxCell>
        <mxCell id="CI6bG_chYX4MwjsH_pNR-228" value="&lt;font style=&quot;font-size: 18px;&quot;&gt;* Название сценария автоматизации&lt;div style=&quot;font-size: 12px;&quot;&gt;&lt;span style=&quot;font-size: 18px;&quot;&gt;* Номер устройства&lt;/span&gt;&lt;/div&gt;&lt;div style=&quot;font-size: 12px;&quot;&gt;&lt;span style=&quot;font-size: 18px; background-color: transparent; color: light-dark(rgb(0, 0, 0), rgb(255, 255, 255));&quot;&gt;&amp;nbsp; Назначаемый статус устройства из сценария&lt;/span&gt;&lt;/div&gt;&lt;/font&gt;" style="align=left;strokeColor=none;fillColor=none;spacingLeft=4;fontSize=12;verticalAlign=top;resizable=0;rotatable=0;part=1;html=1;" vertex="1" parent="CI6bG_chYX4MwjsH_pNR-227">
          <mxGeometry y="50" width="410" height="100" as="geometry" />
        </mxCell>
        <mxCell id="CI6bG_chYX4MwjsH_pNR-229" value="&lt;span style=&quot;font-size: 24px;&quot;&gt;&lt;b&gt;Дом&lt;/b&gt;&lt;/span&gt;" style="swimlane;childLayout=stackLayout;horizontal=1;startSize=50;horizontalStack=0;rounded=1;fontSize=14;fontStyle=0;strokeWidth=2;resizeParent=0;resizeLast=1;shadow=0;dashed=0;align=center;arcSize=4;whiteSpace=wrap;html=1;" vertex="1" parent="1">
          <mxGeometry x="760" y="390" width="230" height="90" as="geometry" />
        </mxCell>
        <mxCell id="CI6bG_chYX4MwjsH_pNR-230" value="&lt;font style=&quot;font-size: 18px;&quot;&gt;*&amp;nbsp;&lt;span style=&quot;background-color: transparent; color: light-dark(rgb(0, 0, 0), rgb(255, 255, 255));&quot;&gt;Идентификатор дома&lt;/span&gt;&lt;/font&gt;" style="align=left;strokeColor=none;fillColor=none;spacingLeft=4;fontSize=12;verticalAlign=top;resizable=0;rotatable=0;part=1;html=1;" vertex="1" parent="CI6bG_chYX4MwjsH_pNR-229">
          <mxGeometry y="50" width="230" height="40" as="geometry" />
        </mxCell>
        <mxCell id="CI6bG_chYX4MwjsH_pNR-231" value="&lt;span style=&quot;font-size: 24px;&quot;&gt;&lt;b&gt;Дом пользователя&lt;/b&gt;&lt;/span&gt;" style="swimlane;childLayout=stackLayout;horizontal=1;startSize=50;horizontalStack=0;rounded=1;fontSize=14;fontStyle=0;strokeWidth=2;resizeParent=0;resizeLast=1;shadow=0;dashed=0;align=center;arcSize=4;whiteSpace=wrap;html=1;" vertex="1" parent="1">
          <mxGeometry x="350" y="380" width="260" height="110" as="geometry" />
        </mxCell>
        <mxCell id="CI6bG_chYX4MwjsH_pNR-232" value="&lt;font style=&quot;font-size: 18px;&quot;&gt;* Email&lt;br&gt;&lt;span style=&quot;background-color: transparent; color: light-dark(rgb(0, 0, 0), rgb(255, 255, 255));&quot;&gt;* Идентификатор дома&lt;/span&gt;&lt;/font&gt;" style="align=left;strokeColor=none;fillColor=none;spacingLeft=4;fontSize=12;verticalAlign=top;resizable=0;rotatable=0;part=1;html=1;" vertex="1" parent="CI6bG_chYX4MwjsH_pNR-231">
          <mxGeometry y="50" width="260" height="60" as="geometry" />
        </mxCell>
        <mxCell id="CI6bG_chYX4MwjsH_pNR-233" value="" style="edgeStyle=entityRelationEdgeStyle;fontSize=12;html=1;endArrow=ERoneToMany;startArrow=ERmandOne;rounded=0;exitX=1;exitY=0.25;exitDx=0;exitDy=0;entryX=0;entryY=0;entryDx=0;entryDy=0;" edge="1" parent="1" source="CI6bG_chYX4MwjsH_pNR-215" target="CI6bG_chYX4MwjsH_pNR-232">
          <mxGeometry width="100" height="100" relative="1" as="geometry">
            <mxPoint x="560" y="620" as="sourcePoint" />
            <mxPoint x="660" y="520" as="targetPoint" />
          </mxGeometry>
        </mxCell>
        <mxCell id="CI6bG_chYX4MwjsH_pNR-234" value="" style="edgeStyle=entityRelationEdgeStyle;fontSize=12;html=1;endArrow=ERoneToMany;startArrow=ERmandOne;rounded=0;entryX=1;entryY=0.5;entryDx=0;entryDy=0;exitX=0;exitY=0.5;exitDx=0;exitDy=0;" edge="1" parent="1" source="CI6bG_chYX4MwjsH_pNR-229" target="CI6bG_chYX4MwjsH_pNR-231">
          <mxGeometry width="100" height="100" relative="1" as="geometry">
            <mxPoint x="560" y="620" as="sourcePoint" />
            <mxPoint x="660" y="520" as="targetPoint" />
          </mxGeometry>
        </mxCell>
        <mxCell id="CI6bG_chYX4MwjsH_pNR-235" value="&lt;span style=&quot;font-size: 24px;&quot;&gt;&lt;b&gt;День недели&lt;/b&gt;&lt;/span&gt;" style="swimlane;childLayout=stackLayout;horizontal=1;startSize=50;horizontalStack=0;rounded=1;fontSize=14;fontStyle=0;strokeWidth=2;resizeParent=0;resizeLast=1;shadow=0;dashed=0;align=center;arcSize=4;whiteSpace=wrap;html=1;" vertex="1" parent="1">
          <mxGeometry x="1323" y="920" width="287" height="90" as="geometry" />
        </mxCell>
        <mxCell id="CI6bG_chYX4MwjsH_pNR-236" value="&lt;font style=&quot;font-size: 18px;&quot;&gt;*&amp;nbsp;&lt;span style=&quot;background-color: transparent; color: light-dark(rgb(0, 0, 0), rgb(255, 255, 255));&quot;&gt;День недели&lt;/span&gt;&lt;/font&gt;" style="align=left;strokeColor=none;fillColor=none;spacingLeft=4;fontSize=12;verticalAlign=top;resizable=0;rotatable=0;part=1;html=1;" vertex="1" parent="CI6bG_chYX4MwjsH_pNR-235">
          <mxGeometry y="50" width="287" height="40" as="geometry" />
        </mxCell>
        <mxCell id="CI6bG_chYX4MwjsH_pNR-237" value="&lt;span style=&quot;font-size: 24px;&quot;&gt;&lt;b&gt;День недели в сценарии&lt;/b&gt;&lt;/span&gt;" style="swimlane;childLayout=stackLayout;horizontal=1;startSize=50;horizontalStack=0;rounded=1;fontSize=14;fontStyle=0;strokeWidth=2;resizeParent=0;resizeLast=1;shadow=0;dashed=0;align=center;arcSize=4;whiteSpace=wrap;html=1;" vertex="1" parent="1">
          <mxGeometry x="870" y="920" width="353" height="110" as="geometry" />
        </mxCell>
        <mxCell id="CI6bG_chYX4MwjsH_pNR-238" value="&lt;font style=&quot;font-size: 18px;&quot;&gt;*&amp;nbsp;&lt;/font&gt;&lt;span style=&quot;font-size: 18px;&quot;&gt;Название сценария автоматизации&lt;br&gt;* День недели&lt;/span&gt;" style="align=left;strokeColor=none;fillColor=none;spacingLeft=4;fontSize=12;verticalAlign=top;resizable=0;rotatable=0;part=1;html=1;" vertex="1" parent="CI6bG_chYX4MwjsH_pNR-237">
          <mxGeometry y="50" width="353" height="60" as="geometry" />
        </mxCell>
        <mxCell id="CI6bG_chYX4MwjsH_pNR-239" value="" style="edgeStyle=entityRelationEdgeStyle;fontSize=12;html=1;endArrow=ERzeroToMany;startArrow=ERmandOne;rounded=0;exitX=1;exitY=0.75;exitDx=0;exitDy=0;entryX=0;entryY=0.5;entryDx=0;entryDy=0;" edge="1" parent="1" source="CI6bG_chYX4MwjsH_pNR-222" target="CI6bG_chYX4MwjsH_pNR-237">
          <mxGeometry width="100" height="100" relative="1" as="geometry">
            <mxPoint x="610" y="910" as="sourcePoint" />
            <mxPoint x="710" y="810" as="targetPoint" />
          </mxGeometry>
        </mxCell>
        <mxCell id="CI6bG_chYX4MwjsH_pNR-240" value="" style="edgeStyle=entityRelationEdgeStyle;fontSize=12;html=1;endArrow=ERzeroToMany;startArrow=ERmandOne;rounded=0;exitX=0;exitY=0;exitDx=0;exitDy=0;entryX=1;entryY=0;entryDx=0;entryDy=0;" edge="1" parent="1" source="CI6bG_chYX4MwjsH_pNR-236" target="CI6bG_chYX4MwjsH_pNR-238">
          <mxGeometry width="100" height="100" relative="1" as="geometry">
            <mxPoint x="1193" y="1020" as="sourcePoint" />
            <mxPoint x="1293" y="920" as="targetPoint" />
          </mxGeometry>
        </mxCell>
        <mxCell id="CI6bG_chYX4MwjsH_pNR-241" value="" style="edgeStyle=entityRelationEdgeStyle;fontSize=12;html=1;endArrow=ERzeroToMany;startArrow=ERmandOne;rounded=0;exitX=1;exitY=0;exitDx=0;exitDy=0;entryX=0;entryY=0.25;entryDx=0;entryDy=0;" edge="1" parent="1" source="CI6bG_chYX4MwjsH_pNR-230" target="CI6bG_chYX4MwjsH_pNR-219">
          <mxGeometry width="100" height="100" relative="1" as="geometry">
            <mxPoint x="570" y="730" as="sourcePoint" />
            <mxPoint x="670" y="630" as="targetPoint" />
          </mxGeometry>
        </mxCell>
        <mxCell id="CI6bG_chYX4MwjsH_pNR-242" value="" style="edgeStyle=entityRelationEdgeStyle;fontSize=12;html=1;endArrow=ERzeroToMany;startArrow=ERmandOne;rounded=0;entryX=1;entryY=0.25;entryDx=0;entryDy=0;exitX=0;exitY=0.75;exitDx=0;exitDy=0;" edge="1" parent="1" source="CI6bG_chYX4MwjsH_pNR-229" target="CI6bG_chYX4MwjsH_pNR-217">
          <mxGeometry width="100" height="100" relative="1" as="geometry">
            <mxPoint x="570" y="730" as="sourcePoint" />
            <mxPoint x="670" y="630" as="targetPoint" />
          </mxGeometry>
        </mxCell>
        <mxCell id="CI6bG_chYX4MwjsH_pNR-272" value="&lt;span style=&quot;font-size: 24px;&quot;&gt;&lt;b&gt;Пользователь&lt;/b&gt;&lt;/span&gt;" style="swimlane;childLayout=stackLayout;horizontal=1;startSize=50;horizontalStack=0;rounded=1;fontSize=14;fontStyle=0;strokeWidth=2;resizeParent=0;resizeLast=1;shadow=0;dashed=0;align=center;arcSize=4;whiteSpace=wrap;html=1;" vertex="1" parent="1">
          <mxGeometry x="40" y="1557" width="190" height="110" as="geometry" />
        </mxCell>
        <mxCell id="CI6bG_chYX4MwjsH_pNR-273" value="&lt;font style=&quot;font-size: 18px;&quot;&gt;* Email&lt;/font&gt;&lt;div&gt;&lt;font style=&quot;font-size: 18px;&quot;&gt;&amp;nbsp; Имя пользователя&lt;/font&gt;&lt;/div&gt;&lt;div&gt;&lt;font style=&quot;font-size: 18px;&quot;&gt;&amp;nbsp;&amp;nbsp;&lt;/font&gt;&lt;/div&gt;" style="align=left;strokeColor=none;fillColor=none;spacingLeft=4;fontSize=12;verticalAlign=top;resizable=0;rotatable=0;part=1;html=1;" vertex="1" parent="CI6bG_chYX4MwjsH_pNR-272">
          <mxGeometry y="50" width="190" height="60" as="geometry" />
        </mxCell>
        <mxCell id="CI6bG_chYX4MwjsH_pNR-274" value="&lt;span style=&quot;font-size: 24px;&quot;&gt;&lt;b&gt;Устройство&lt;/b&gt;&lt;/span&gt;" style="swimlane;childLayout=stackLayout;horizontal=1;startSize=50;horizontalStack=0;rounded=1;fontSize=14;fontStyle=0;strokeWidth=2;resizeParent=0;resizeLast=1;shadow=0;dashed=0;align=center;arcSize=4;whiteSpace=wrap;html=1;" vertex="1" parent="1">
          <mxGeometry x="350" y="1450" width="335" height="150" as="geometry" />
        </mxCell>
        <mxCell id="CI6bG_chYX4MwjsH_pNR-275" value="&lt;div&gt;&lt;font style=&quot;font-size: 18px;&quot;&gt;* Номер устройства&lt;/font&gt;&lt;/div&gt;&lt;div&gt;&lt;font style=&quot;font-size: 18px;&quot;&gt;&amp;nbsp; Тип устройства&lt;/font&gt;&lt;/div&gt;&lt;div&gt;&lt;font style=&quot;font-size: 18px;&quot;&gt;&amp;nbsp; Статус устройства&lt;/font&gt;&lt;/div&gt;&lt;div&gt;&lt;font style=&quot;font-size: 18px;&quot;&gt;&amp;nbsp; Режим энергосбережения устройства&lt;/font&gt;&lt;/div&gt;" style="align=left;strokeColor=none;fillColor=none;spacingLeft=4;fontSize=12;verticalAlign=top;resizable=0;rotatable=0;part=1;html=1;" vertex="1" parent="CI6bG_chYX4MwjsH_pNR-274">
          <mxGeometry y="50" width="335" height="100" as="geometry" />
        </mxCell>
        <mxCell id="CI6bG_chYX4MwjsH_pNR-276" value="&lt;span style=&quot;font-size: 24px;&quot;&gt;&lt;b&gt;Комната&lt;/b&gt;&lt;/span&gt;" style="swimlane;childLayout=stackLayout;horizontal=1;startSize=50;horizontalStack=0;rounded=1;fontSize=14;fontStyle=0;strokeWidth=2;resizeParent=0;resizeLast=1;shadow=0;dashed=0;align=center;arcSize=4;whiteSpace=wrap;html=1;" vertex="1" parent="1">
          <mxGeometry x="1095" y="1460" width="190" height="110" as="geometry" />
        </mxCell>
        <mxCell id="CI6bG_chYX4MwjsH_pNR-277" value="&lt;font style=&quot;font-size: 18px;&quot;&gt;*&amp;nbsp;&lt;span style=&quot;background-color: transparent; color: light-dark(rgb(0, 0, 0), rgb(255, 255, 255));&quot;&gt;Название комнаты&lt;/span&gt;&lt;div style=&quot;font-size: 12px;&quot;&gt;&lt;font style=&quot;font-size: 18px;&quot;&gt;&amp;nbsp; Тип комнаты&lt;/font&gt;&lt;/div&gt;&lt;/font&gt;" style="align=left;strokeColor=none;fillColor=none;spacingLeft=4;fontSize=12;verticalAlign=top;resizable=0;rotatable=0;part=1;html=1;" vertex="1" parent="CI6bG_chYX4MwjsH_pNR-276">
          <mxGeometry y="50" width="190" height="60" as="geometry" />
        </mxCell>
        <mxCell id="CI6bG_chYX4MwjsH_pNR-278" value="&lt;span style=&quot;font-size: 24px;&quot;&gt;&lt;b&gt;Сценарий автоматизации&lt;/b&gt;&lt;/span&gt;" style="swimlane;childLayout=stackLayout;horizontal=1;startSize=50;horizontalStack=0;rounded=1;fontSize=14;fontStyle=0;strokeWidth=2;resizeParent=0;resizeLast=1;shadow=0;dashed=0;align=center;arcSize=4;whiteSpace=wrap;html=1;" vertex="1" parent="1">
          <mxGeometry x="350" y="1667" width="410" height="123" as="geometry" />
        </mxCell>
        <mxCell id="CI6bG_chYX4MwjsH_pNR-279" value="&lt;div&gt;&lt;font style=&quot;font-size: 18px;&quot;&gt;*&amp;nbsp;&lt;/font&gt;&lt;span style=&quot;font-size: 18px; background-color: light-dark(rgb(251, 251, 251), rgb(21, 21, 21)); color: light-dark(rgb(0, 0, 0), rgb(237, 237, 237));&quot;&gt;Название сценария автоматизации&lt;/span&gt;&lt;/div&gt;&lt;div style=&quot;color: rgb(0, 0, 0); background-color: rgb(251, 251, 251);&quot;&gt;&lt;font style=&quot;font-size: 18px;&quot;&gt;&amp;nbsp; Время запуска сценария&lt;/font&gt;&lt;/div&gt;&lt;div style=&quot;color: rgb(0, 0, 0); background-color: rgb(251, 251, 251);&quot;&gt;&lt;font style=&quot;font-size: 18px;&quot;&gt;&amp;nbsp;&amp;nbsp;&lt;/font&gt;&lt;/div&gt;" style="align=left;strokeColor=none;fillColor=none;spacingLeft=4;fontSize=12;verticalAlign=top;resizable=0;rotatable=0;part=1;html=1;" vertex="1" parent="CI6bG_chYX4MwjsH_pNR-278">
          <mxGeometry y="50" width="410" height="73" as="geometry" />
        </mxCell>
        <mxCell id="CI6bG_chYX4MwjsH_pNR-280" value="" style="edgeStyle=entityRelationEdgeStyle;fontSize=12;html=1;endArrow=ERzeroToMany;startArrow=ERzeroToOne;rounded=0;entryX=1;entryY=0.25;entryDx=0;entryDy=0;exitX=0;exitY=0.25;exitDx=0;exitDy=0;" edge="1" parent="1" source="CI6bG_chYX4MwjsH_pNR-277" target="CI6bG_chYX4MwjsH_pNR-275">
          <mxGeometry width="100" height="100" relative="1" as="geometry">
            <mxPoint x="590" y="1800" as="sourcePoint" />
            <mxPoint x="690" y="1700" as="targetPoint" />
          </mxGeometry>
        </mxCell>
        <mxCell id="CI6bG_chYX4MwjsH_pNR-281" value="" style="edgeStyle=entityRelationEdgeStyle;fontSize=12;html=1;endArrow=ERzeroToMany;startArrow=ERmandOne;rounded=0;exitX=1;exitY=0.5;exitDx=0;exitDy=0;entryX=0;entryY=0.25;entryDx=0;entryDy=0;" edge="1" parent="1" source="CI6bG_chYX4MwjsH_pNR-273" target="CI6bG_chYX4MwjsH_pNR-279">
          <mxGeometry width="100" height="100" relative="1" as="geometry">
            <mxPoint x="380" y="1810" as="sourcePoint" />
            <mxPoint x="480" y="1710" as="targetPoint" />
            <Array as="points">
              <mxPoint x="200" y="1770" />
            </Array>
          </mxGeometry>
        </mxCell>
        <mxCell id="CI6bG_chYX4MwjsH_pNR-282" value="" style="edgeStyle=entityRelationEdgeStyle;fontSize=12;html=1;endArrow=ERoneToMany;startArrow=ERmandOne;rounded=0;entryX=0;entryY=0.5;entryDx=0;entryDy=0;" edge="1" parent="1" target="CI6bG_chYX4MwjsH_pNR-285">
          <mxGeometry width="100" height="100" relative="1" as="geometry">
            <mxPoint x="760" y="1720" as="sourcePoint" />
            <mxPoint x="837" y="1722.5" as="targetPoint" />
          </mxGeometry>
        </mxCell>
        <mxCell id="CI6bG_chYX4MwjsH_pNR-283" value="" style="edgeStyle=entityRelationEdgeStyle;fontSize=12;html=1;endArrow=ERzeroToMany;startArrow=ERmandOne;rounded=0;entryX=0;entryY=0.25;entryDx=0;entryDy=0;exitX=1;exitY=0.75;exitDx=0;exitDy=0;" edge="1" parent="1" source="CI6bG_chYX4MwjsH_pNR-275" target="CI6bG_chYX4MwjsH_pNR-284">
          <mxGeometry width="100" height="100" relative="1" as="geometry">
            <mxPoint x="600" y="1680" as="sourcePoint" />
            <mxPoint x="837" y="1667.5" as="targetPoint" />
          </mxGeometry>
        </mxCell>
        <mxCell id="CI6bG_chYX4MwjsH_pNR-284" value="&lt;span style=&quot;font-size: 24px;&quot;&gt;&lt;b&gt;Устройства из сценария&lt;/b&gt;&lt;/span&gt;" style="swimlane;childLayout=stackLayout;horizontal=1;startSize=50;horizontalStack=0;rounded=1;fontSize=14;fontStyle=0;strokeWidth=2;resizeParent=0;resizeLast=1;shadow=0;dashed=0;align=center;arcSize=4;whiteSpace=wrap;html=1;" vertex="1" parent="1">
          <mxGeometry x="870" y="1620" width="410" height="150" as="geometry" />
        </mxCell>
        <mxCell id="CI6bG_chYX4MwjsH_pNR-285" value="&lt;font style=&quot;font-size: 18px;&quot;&gt;* Название сценария автоматизации&lt;div style=&quot;font-size: 12px;&quot;&gt;&lt;span style=&quot;font-size: 18px;&quot;&gt;* Номер устройства&lt;/span&gt;&lt;/div&gt;&lt;div style=&quot;font-size: 12px;&quot;&gt;&lt;span style=&quot;font-size: 18px; background-color: transparent; color: light-dark(rgb(0, 0, 0), rgb(255, 255, 255));&quot;&gt;&amp;nbsp; Назначаемый статус устройства из сценария&lt;/span&gt;&lt;/div&gt;&lt;/font&gt;" style="align=left;strokeColor=none;fillColor=none;spacingLeft=4;fontSize=12;verticalAlign=top;resizable=0;rotatable=0;part=1;html=1;" vertex="1" parent="CI6bG_chYX4MwjsH_pNR-284">
          <mxGeometry y="50" width="410" height="100" as="geometry" />
        </mxCell>
        <mxCell id="CI6bG_chYX4MwjsH_pNR-286" value="&lt;span style=&quot;font-size: 24px;&quot;&gt;&lt;b&gt;Дом&lt;/b&gt;&lt;/span&gt;" style="swimlane;childLayout=stackLayout;horizontal=1;startSize=50;horizontalStack=0;rounded=1;fontSize=14;fontStyle=0;strokeWidth=2;resizeParent=0;resizeLast=1;shadow=0;dashed=0;align=center;arcSize=4;whiteSpace=wrap;html=1;" vertex="1" parent="1">
          <mxGeometry x="760" y="1300" width="230" height="90" as="geometry" />
        </mxCell>
        <mxCell id="CI6bG_chYX4MwjsH_pNR-287" value="&lt;font style=&quot;font-size: 18px;&quot;&gt;*&amp;nbsp;&lt;span style=&quot;background-color: transparent; color: light-dark(rgb(0, 0, 0), rgb(255, 255, 255));&quot;&gt;Идентификатор дома&lt;/span&gt;&lt;/font&gt;" style="align=left;strokeColor=none;fillColor=none;spacingLeft=4;fontSize=12;verticalAlign=top;resizable=0;rotatable=0;part=1;html=1;" vertex="1" parent="CI6bG_chYX4MwjsH_pNR-286">
          <mxGeometry y="50" width="230" height="40" as="geometry" />
        </mxCell>
        <mxCell id="CI6bG_chYX4MwjsH_pNR-288" value="&lt;span style=&quot;font-size: 24px;&quot;&gt;&lt;b&gt;Дом пользователя&lt;/b&gt;&lt;/span&gt;" style="swimlane;childLayout=stackLayout;horizontal=1;startSize=50;horizontalStack=0;rounded=1;fontSize=14;fontStyle=0;strokeWidth=2;resizeParent=0;resizeLast=1;shadow=0;dashed=0;align=center;arcSize=4;whiteSpace=wrap;html=1;" vertex="1" parent="1">
          <mxGeometry x="350" y="1290" width="260" height="110" as="geometry" />
        </mxCell>
        <mxCell id="CI6bG_chYX4MwjsH_pNR-289" value="&lt;font style=&quot;font-size: 18px;&quot;&gt;* Email&lt;br&gt;&lt;span style=&quot;background-color: transparent; color: light-dark(rgb(0, 0, 0), rgb(255, 255, 255));&quot;&gt;* Идентификатор дома&lt;/span&gt;&lt;/font&gt;" style="align=left;strokeColor=none;fillColor=none;spacingLeft=4;fontSize=12;verticalAlign=top;resizable=0;rotatable=0;part=1;html=1;" vertex="1" parent="CI6bG_chYX4MwjsH_pNR-288">
          <mxGeometry y="50" width="260" height="60" as="geometry" />
        </mxCell>
        <mxCell id="CI6bG_chYX4MwjsH_pNR-290" value="" style="edgeStyle=entityRelationEdgeStyle;fontSize=12;html=1;endArrow=ERoneToMany;startArrow=ERmandOne;rounded=0;exitX=1;exitY=0.25;exitDx=0;exitDy=0;entryX=0;entryY=0;entryDx=0;entryDy=0;" edge="1" parent="1" source="CI6bG_chYX4MwjsH_pNR-272" target="CI6bG_chYX4MwjsH_pNR-289">
          <mxGeometry width="100" height="100" relative="1" as="geometry">
            <mxPoint x="560" y="1530" as="sourcePoint" />
            <mxPoint x="660" y="1430" as="targetPoint" />
          </mxGeometry>
        </mxCell>
        <mxCell id="CI6bG_chYX4MwjsH_pNR-291" value="" style="edgeStyle=entityRelationEdgeStyle;fontSize=12;html=1;endArrow=ERoneToMany;startArrow=ERmandOne;rounded=0;entryX=1;entryY=0.5;entryDx=0;entryDy=0;exitX=0;exitY=0.5;exitDx=0;exitDy=0;" edge="1" parent="1" source="CI6bG_chYX4MwjsH_pNR-286" target="CI6bG_chYX4MwjsH_pNR-288">
          <mxGeometry width="100" height="100" relative="1" as="geometry">
            <mxPoint x="560" y="1530" as="sourcePoint" />
            <mxPoint x="660" y="1430" as="targetPoint" />
          </mxGeometry>
        </mxCell>
        <mxCell id="CI6bG_chYX4MwjsH_pNR-292" value="&lt;span style=&quot;font-size: 24px;&quot;&gt;&lt;b&gt;День недели&lt;/b&gt;&lt;/span&gt;" style="swimlane;childLayout=stackLayout;horizontal=1;startSize=50;horizontalStack=0;rounded=1;fontSize=14;fontStyle=0;strokeWidth=2;resizeParent=0;resizeLast=1;shadow=0;dashed=0;align=center;arcSize=4;whiteSpace=wrap;html=1;" vertex="1" parent="1">
          <mxGeometry x="1323" y="1830" width="287" height="90" as="geometry" />
        </mxCell>
        <mxCell id="CI6bG_chYX4MwjsH_pNR-293" value="&lt;font style=&quot;font-size: 18px;&quot;&gt;*&amp;nbsp;&lt;span style=&quot;background-color: transparent; color: light-dark(rgb(0, 0, 0), rgb(255, 255, 255));&quot;&gt;День недели&lt;/span&gt;&lt;/font&gt;" style="align=left;strokeColor=none;fillColor=none;spacingLeft=4;fontSize=12;verticalAlign=top;resizable=0;rotatable=0;part=1;html=1;" vertex="1" parent="CI6bG_chYX4MwjsH_pNR-292">
          <mxGeometry y="50" width="287" height="40" as="geometry" />
        </mxCell>
        <mxCell id="CI6bG_chYX4MwjsH_pNR-294" value="&lt;span style=&quot;font-size: 24px;&quot;&gt;&lt;b&gt;День недели в сценарии&lt;/b&gt;&lt;/span&gt;" style="swimlane;childLayout=stackLayout;horizontal=1;startSize=50;horizontalStack=0;rounded=1;fontSize=14;fontStyle=0;strokeWidth=2;resizeParent=0;resizeLast=1;shadow=0;dashed=0;align=center;arcSize=4;whiteSpace=wrap;html=1;" vertex="1" parent="1">
          <mxGeometry x="870" y="1830" width="353" height="110" as="geometry" />
        </mxCell>
        <mxCell id="CI6bG_chYX4MwjsH_pNR-295" value="&lt;font style=&quot;font-size: 18px;&quot;&gt;*&amp;nbsp;&lt;/font&gt;&lt;span style=&quot;font-size: 18px;&quot;&gt;Название сценария автоматизации&lt;br&gt;* День недели&lt;/span&gt;" style="align=left;strokeColor=none;fillColor=none;spacingLeft=4;fontSize=12;verticalAlign=top;resizable=0;rotatable=0;part=1;html=1;" vertex="1" parent="CI6bG_chYX4MwjsH_pNR-294">
          <mxGeometry y="50" width="353" height="60" as="geometry" />
        </mxCell>
        <mxCell id="CI6bG_chYX4MwjsH_pNR-296" value="" style="edgeStyle=entityRelationEdgeStyle;fontSize=12;html=1;endArrow=ERzeroToMany;startArrow=ERmandOne;rounded=0;exitX=1;exitY=0.75;exitDx=0;exitDy=0;entryX=0;entryY=0.5;entryDx=0;entryDy=0;" edge="1" parent="1" source="CI6bG_chYX4MwjsH_pNR-279" target="CI6bG_chYX4MwjsH_pNR-294">
          <mxGeometry width="100" height="100" relative="1" as="geometry">
            <mxPoint x="610" y="1820" as="sourcePoint" />
            <mxPoint x="710" y="1720" as="targetPoint" />
          </mxGeometry>
        </mxCell>
        <mxCell id="CI6bG_chYX4MwjsH_pNR-297" value="" style="edgeStyle=entityRelationEdgeStyle;fontSize=12;html=1;endArrow=ERzeroToMany;startArrow=ERmandOne;rounded=0;exitX=0;exitY=0;exitDx=0;exitDy=0;entryX=1;entryY=0;entryDx=0;entryDy=0;" edge="1" parent="1" source="CI6bG_chYX4MwjsH_pNR-293" target="CI6bG_chYX4MwjsH_pNR-295">
          <mxGeometry width="100" height="100" relative="1" as="geometry">
            <mxPoint x="1193" y="1930" as="sourcePoint" />
            <mxPoint x="1293" y="1830" as="targetPoint" />
          </mxGeometry>
        </mxCell>
        <mxCell id="CI6bG_chYX4MwjsH_pNR-298" value="" style="edgeStyle=entityRelationEdgeStyle;fontSize=12;html=1;endArrow=ERzeroToMany;startArrow=ERmandOne;rounded=0;exitX=1;exitY=0;exitDx=0;exitDy=0;entryX=0;entryY=0.25;entryDx=0;entryDy=0;" edge="1" parent="1" source="CI6bG_chYX4MwjsH_pNR-287" target="CI6bG_chYX4MwjsH_pNR-276">
          <mxGeometry width="100" height="100" relative="1" as="geometry">
            <mxPoint x="570" y="1640" as="sourcePoint" />
            <mxPoint x="670" y="1540" as="targetPoint" />
          </mxGeometry>
        </mxCell>
        <mxCell id="CI6bG_chYX4MwjsH_pNR-299" value="" style="edgeStyle=entityRelationEdgeStyle;fontSize=12;html=1;endArrow=ERzeroToMany;startArrow=ERmandOne;rounded=0;entryX=1;entryY=0.25;entryDx=0;entryDy=0;exitX=0;exitY=0.75;exitDx=0;exitDy=0;" edge="1" parent="1" source="CI6bG_chYX4MwjsH_pNR-286" target="CI6bG_chYX4MwjsH_pNR-274">
          <mxGeometry width="100" height="100" relative="1" as="geometry">
            <mxPoint x="570" y="1640" as="sourcePoint" />
            <mxPoint x="670" y="1540" as="targetPoint" />
          </mxGeometry>
        </mxCell>
      </root>
    </mxGraphModel>
  </diagram>
</mxfile>
